<svg width="782" height="497" viewBox="0 0 782 497" fill="none" xmlns="http://www.w3.org/2000/svg">
<path d="M751.481 272.146L734.786 253.059C734.786 253.059 659.825 186.688 657.156 111.796C654.486 36.9032 621.293 26.8361 541.862 22.1326C474.707 18.1558 397.079 6.88033 334.684 49.3824C307.302 68.0343 274.893 77.515 242.035 76.3806L169.611 73.8807C135.057 72.6879 101.052 83.2028 72.9547 103.855C31.3008 134.471 -13.5547 190.83 4.74503 286.684C7.85225 302.96 9.8172 320.022 10.1255 336.602L10.8831 377.329C11.5485 413.097 39.4367 441.971 74.2773 442.734L617.868 454.65C673.752 455.875 727.473 432.812 765.865 391.146C776.103 380.036 781.658 365.24 781.373 349.942C780.838 321.177 770.213 293.563 751.481 272.146Z" fill="url(#paint0_linear_8007_33434)"/>
<path d="M765.359 81.5653C774.303 122.445 815.197 362.984 563.876 455.206C563.876 455.206 490.321 306.183 758.734 79.9906C761.083 78.0114 764.775 78.8945 765.359 81.5653Z" fill="#91B3FA"/>
<path d="M744.416 121.239C741.618 135.601 738.208 149.802 734.55 163.948C730.854 178.082 726.829 192.129 722.478 206.076C713.806 233.98 703.716 261.447 692.194 288.314C686.363 301.718 680.15 314.956 673.535 327.998C666.82 340.988 659.668 353.754 652.032 366.236C644.264 378.635 636.017 390.74 627.139 402.39C618.138 413.944 608.529 425.029 598.212 435.454C597.638 436.035 596.702 436.039 596.123 435.464C595.543 434.889 595.539 433.953 596.113 433.373L596.118 433.368L596.134 433.351C606.397 423.079 615.979 412.135 624.971 400.709C633.841 389.186 642.098 377.194 649.885 364.897C657.542 352.516 664.724 339.842 671.477 326.934C678.129 313.974 684.386 300.81 690.265 287.474C701.884 260.74 712.086 233.381 720.878 205.571C725.289 191.672 729.374 177.667 733.133 163.574C736.853 149.477 740.33 135.292 743.185 121.009L743.188 120.997C743.256 120.657 743.586 120.437 743.924 120.505C744.263 120.573 744.484 120.9 744.416 121.239Z" fill="#BDD0FB"/>
<path d="M657.235 3.28638C678.967 46.2327 793.545 300.931 534.834 444.047C534.834 444.047 409.192 294.463 649.279 2.70132C651.38 0.149413 655.816 0.4807 657.235 3.28638Z" fill="#BDD0FB"/>
<path d="M644.592 49.9459C645.178 58.0557 645.49 66.1577 645.714 74.2707C645.928 82.382 646.007 90.496 645.973 98.6094C645.911 114.836 645.368 131.062 644.383 147.26C642.376 179.652 638.576 211.963 632.326 243.839C626.063 275.689 617.389 307.166 605.021 337.259C598.843 352.296 591.694 366.956 583.419 380.975C579.252 387.965 574.867 394.833 570.114 401.448C565.353 408.057 560.306 414.46 554.959 420.613C554.467 421.179 553.609 421.239 553.044 420.746C552.478 420.254 552.419 419.395 552.91 418.829L552.914 418.825L552.922 418.816C558.231 412.755 563.249 406.441 567.989 399.918C572.721 393.387 577.093 386.6 581.253 379.686C589.514 365.818 596.673 351.291 602.874 336.367C615.29 306.504 624.06 275.189 630.43 243.462C636.788 211.711 640.711 179.486 642.844 147.162C643.893 130.998 644.5 114.802 644.627 98.6009C644.693 90.5006 644.647 82.3993 644.466 74.3012C644.276 66.2066 643.996 58.1007 643.445 50.0354L643.445 50.0262C643.423 49.7088 643.662 49.4341 643.979 49.4129C644.296 49.3913 644.57 49.6288 644.592 49.9459Z" fill="#BDD0FB"/>
<path d="M774.471 278.908C769.877 305.004 736.948 455.777 590.076 450.255C590.076 450.255 586.232 345.409 771.49 276.413C773.111 275.809 774.771 277.203 774.471 278.908Z" fill="#BDD0FB"/>
<path d="M755.497 297.351C751.261 305.055 746.49 312.371 741.531 319.578C736.549 326.765 731.29 333.757 725.814 340.572C720.333 347.386 714.623 354.014 708.705 360.454C702.765 366.875 696.609 373.094 690.267 379.121C683.937 385.161 677.319 390.894 670.587 396.485C667.181 399.232 663.789 401.999 660.28 404.618C656.831 407.315 653.246 409.828 649.7 412.397C635.379 422.476 620.279 431.459 604.581 439.262C603.703 439.698 602.638 439.339 602.202 438.46C601.766 437.58 602.124 436.514 603.002 436.077L603.018 436.069L603.03 436.064C618.629 428.499 633.669 419.752 647.963 409.901C651.502 407.388 655.082 404.932 658.528 402.29C662.034 399.727 665.425 397.015 668.832 394.322C675.567 388.839 682.193 383.211 688.54 377.273C694.898 371.348 701.076 365.228 707.043 358.904C712.988 352.56 718.732 346.023 724.249 339.299C729.764 332.573 735.064 325.668 740.089 318.567C745.086 311.458 749.926 304.185 754.171 296.641L754.184 296.618C754.388 296.256 754.846 296.128 755.208 296.332C755.567 296.534 755.696 296.989 755.497 297.351Z" fill="url(#paint1_linear_8007_33434)"/>
<path d="M80.0856 10.3867C66.6418 54.5201 -1.11681 314.55 231.191 422.036C231.191 422.036 319.817 262.345 86.6787 8.86974C84.6392 6.65266 80.9638 7.50353 80.0856 10.3867Z" fill="#BDD0FB"/>
<path d="M96.9178 53.9486C97.8193 69.4097 99.3671 84.8581 101.218 100.249C103.082 115.642 105.317 130.991 107.933 146.273C113.174 176.83 119.86 207.154 128.508 236.914C137.184 266.648 147.786 295.878 161.445 323.649C164.835 330.601 168.49 337.418 172.313 344.133C176.128 350.854 180.199 357.426 184.513 363.829C193.09 376.669 202.773 388.759 213.55 399.767L213.559 399.776C214.12 400.349 214.111 401.27 213.538 401.832C212.965 402.393 212.046 402.385 211.485 401.811L211.481 401.806C200.605 390.598 190.871 378.325 182.274 365.33C177.95 358.849 173.875 352.204 170.062 345.416C166.241 338.634 162.593 331.753 159.213 324.745C145.598 296.743 135.091 267.351 126.522 237.488C117.983 207.6 111.42 177.182 106.307 146.547C103.756 131.226 101.586 115.844 99.7885 100.418C98.0042 84.9898 96.5243 69.5332 95.6889 54.0048C95.6705 53.6654 95.9307 53.3752 96.2698 53.3571C96.6088 53.3387 96.8987 53.5992 96.9167 53.9386L96.9178 53.9486Z" fill="url(#paint2_linear_8007_33434)"/>
<path d="M31.7416 222.13C30.4363 248.352 29.065 401.259 172.156 428.321C172.156 428.321 198.942 327.889 35.1698 220.378C33.7373 219.437 31.8268 220.417 31.7416 222.13Z" fill="#91B3FA"/>
<path d="M47.305 243.753C49.9897 251.939 53.0064 260.042 56.1412 268.081C59.2923 276.117 62.6244 284.082 66.1166 291.974C69.6035 299.869 73.2877 307.676 77.1409 315.394C81.0072 323.106 85.0028 330.754 89.2781 338.242C97.7785 353.241 107.115 367.777 117.627 381.405C118.902 383.139 120.304 384.771 121.64 386.455L123.667 388.964C124.341 389.8 125.064 390.596 125.761 391.414C127.174 393.032 128.554 394.681 129.994 396.273L134.382 400.989C140.34 407.168 146.637 413.01 153.343 418.333L153.358 418.345C153.974 418.833 154.077 419.729 153.589 420.345C153.101 420.961 152.206 421.065 151.591 420.577L151.582 420.57C144.793 415.096 138.451 409.114 132.468 402.809L128.066 398.002C126.622 396.38 125.242 394.704 123.826 393.057C123.129 392.225 122.405 391.415 121.731 390.565L119.704 388.017C118.369 386.307 116.967 384.648 115.696 382.89C105.203 369.062 95.9327 354.368 87.5133 339.235C83.2783 331.679 79.3286 323.97 75.51 316.202C71.7053 308.427 68.072 300.568 64.6378 292.624C61.1986 284.683 57.922 276.672 54.8268 268.591C51.7461 260.503 48.7927 252.376 46.1553 244.114C46.0538 243.797 46.2288 243.458 46.5456 243.356C46.8609 243.255 47.1982 243.428 47.3015 243.742L47.305 243.753Z" fill="#BDD0FB"/>
<path d="M626.404 424.4C626.404 429.112 622.55 432.967 617.839 432.967H154.694C149.983 432.967 146.129 429.112 146.129 424.4L142.275 157.939C142.275 153.228 147.819 144.03 157.981 144.721L610.618 132.996C616.528 132.843 622.243 135.12 626.428 139.297C630.614 143.473 632.904 149.184 632.765 155.096L626.404 424.4Z" fill="url(#paint3_linear_8007_33434)"/>
<path d="M617.949 416.182C617.949 420.644 614.302 424.294 609.846 424.294H165.863C161.406 424.294 157.76 420.644 157.76 416.182L154.124 174.286C154.552 159.729 167.299 154.498 175.027 154.807L608.851 143.155C613.004 143.043 617.02 144.644 619.959 147.582C622.899 150.52 624.505 154.537 624.401 158.695L617.949 416.182Z" fill="url(#paint4_linear_8007_33434)"/>
<g opacity="0.65">
<path d="M162.558 300.841C162.141 300.841 161.8 300.506 161.794 300.087L161.506 280.469C161.5 280.046 161.837 279.699 162.259 279.693C162.668 279.67 163.029 280.024 163.035 280.447L163.323 300.064C163.329 300.487 162.991 300.834 162.569 300.841C162.566 300.841 162.562 300.841 162.558 300.841Z" fill="white"/>
<path d="M161.853 252.768C161.436 252.768 161.095 252.433 161.089 252.014L159.987 176.88C160.01 171.828 161.565 167.793 164.61 164.872C170.143 159.565 178.794 159.831 179.159 159.845L317.688 156.123C318.106 156.086 318.461 156.445 318.472 156.868C318.484 157.291 318.151 157.643 317.729 157.654L179.156 161.376C178.762 161.36 170.738 161.114 165.668 165.978C162.934 168.601 161.537 172.267 161.516 176.872L162.618 251.992C162.625 252.414 162.287 252.762 161.865 252.768C161.861 252.768 161.857 252.768 161.853 252.768Z" fill="white"/>
</g>
<path d="M189.222 369.035C189.616 352.085 189.469 201.986 188.498 189.023C187.526 176.06 207.693 173.629 238.654 172.17C269.615 170.711 530.848 164.935 537.574 164.389C552.693 163.162 555.823 185.786 554.31 234.901C553.174 271.8 551.29 332.586 550.424 360.54C550.166 368.864 543.37 375.468 535.052 375.491C472.189 375.664 231.253 376.355 215.214 376.833C196.756 377.383 189.066 375.756 189.222 369.035Z" fill="url(#paint5_linear_8007_33434)"/>
<path d="M652.283 455.086H129.639C123.207 455.086 117.946 449.819 117.946 443.38C117.946 436.941 123.207 431.674 129.639 431.674H652.284C658.715 431.674 663.977 436.941 663.977 443.38C663.976 449.819 658.715 455.086 652.283 455.086Z" fill="url(#paint6_linear_8007_33434)"/>
<path d="M669.534 424.622H664.575V478.314H669.534V424.622Z" fill="#7D97F4"/>
<path d="M688.772 479.349H645.337V477.194C645.337 476.599 645.818 476.118 646.412 476.118H687.697C688.29 476.118 688.772 476.599 688.772 477.194L688.772 479.349Z" fill="#7D97F4"/>
<path d="M695.218 422.759C695.218 425.695 692.818 428.098 689.885 428.098H645.94C643.007 428.098 640.607 425.695 640.607 422.759V417.931C640.607 414.995 643.007 412.592 645.94 412.592H689.885C692.818 412.592 695.218 414.995 695.218 417.931V422.759Z" fill="#7D97F4"/>
<path d="M630.444 388.822C630.444 388.822 623.075 389.966 614.789 395.511C613.486 396.384 612.77 397.905 612.967 399.463C613.959 407.33 618.038 432.795 631.489 457.666C632.198 458.977 632.402 460.504 632.089 461.962L629.752 472.85L625.419 476.918H636.581L644.014 456.782L640.836 455.776C638.371 454.996 636.681 452.726 636.636 450.14L636.263 428.539C636.581 418.915 630.369 412.275 630.369 412.275L648.196 411.407L630.444 388.822Z" fill="url(#paint7_linear_8007_33434)"/>
<path d="M621.059 478.882C620.043 480.214 632.001 481.971 638.043 479.058C638.043 479.058 646.417 464.47 646.417 456.96C646.417 456.96 645.753 455.428 640.835 455.775C640.835 455.775 638.023 473.048 635.054 474.983C632.084 476.917 626.747 475.179 626.747 475.179C626.747 475.179 622.559 476.917 621.059 478.882Z" fill="url(#paint8_linear_8007_33434)"/>
<path d="M645.94 412.592C645.845 412.428 626.747 410.293 626.747 410.293C626.747 410.293 627.372 416.106 625.418 424.109C623.465 432.112 595.423 466.786 595.423 466.786L598.134 476.124C589.044 479.295 581.065 479.014 572.265 476.952L589.753 466.786C589.753 466.786 606.806 408.605 617.252 398.226L636.396 391.595L645.94 412.592Z" fill="url(#paint9_linear_8007_33434)"/>
<path d="M688.772 378.739C688.772 378.739 699.776 395.124 700.679 402.598C701.581 410.072 697.504 415.592 686.118 413.61C648.529 413.338 639.606 427.66 637.078 445.744C637.039 446.022 636.807 446.234 636.528 446.243C623.467 446.664 610.276 443.926 598.271 437.997C597.715 437.722 597.492 437.04 597.775 436.487C616.105 400.559 602.157 393.458 641.6 382.81C646.908 382.171 688.772 378.739 688.772 378.739Z" fill="url(#paint10_linear_8007_33434)"/>
<path d="M597.253 472.975C597.253 472.975 600.418 476.044 598.28 479.459C598.28 479.459 573.204 483.909 566.396 481.89C566.396 481.89 568.112 478.603 575.778 474.926L574.911 475.418C574.195 475.968 574.615 477.114 575.515 477.062C580.567 476.774 591.022 475.848 597.253 472.975Z" fill="url(#paint11_linear_8007_33434)"/>
<path d="M659.014 376.569C659.014 376.569 646.2 364.354 639.892 356.263C636.483 351.89 635.412 346.132 636.989 340.814C639.869 331.101 644.986 321.041 645.453 319.475C646.169 317.075 660.536 317.175 660.536 317.175C660.536 317.175 693.318 332.118 699.917 366.663L687.442 370.551C687.442 370.551 680.06 358.152 672.766 350.269C672.766 350.269 685.387 366.961 685.831 373.794L659.014 376.569Z" fill="url(#paint12_linear_8007_33434)"/>
<path d="M643.715 306.062C643.865 306.561 647.616 319.007 647.909 319.266C648.202 319.524 656.133 319.951 659.866 317.397L653.533 304.124L643.715 306.062Z" fill="url(#paint13_linear_8007_33434)"/>
<path d="M649.875 279.921C649.875 279.921 643.106 282.783 638.502 292.577C633.899 302.371 637.337 306.893 641.655 307.514C645.972 308.134 652.43 308.04 659.26 301.713C666.09 295.387 658.676 276.529 649.875 279.921Z" fill="url(#paint14_linear_8007_33434)"/>
<path d="M632.909 377.476L642.323 368.392L655.347 373.9C655.347 373.9 668.311 375.911 675.73 373.9C683.15 371.889 683.15 371.889 683.15 371.889L699.917 366.663L702.55 374.114C703.218 376.006 702.547 378.106 700.913 379.268C699.462 380.3 697.762 381.434 696.678 381.909C694.47 382.876 642.248 381.24 642.248 381.24L632.909 377.476Z" fill="url(#paint15_linear_8007_33434)"/>
<path d="M668.536 381.759C668.495 381.761 668.453 381.762 668.411 381.762L613.799 381.702C612.449 381.701 611.356 380.605 611.357 379.253C611.358 377.901 612.458 376.784 613.804 376.808L668.416 376.868C669.766 376.869 670.859 377.966 670.858 379.318C670.857 380.627 669.828 381.695 668.536 381.759Z" fill="url(#paint16_linear_8007_33434)"/>
<path d="M564.705 332.118H610.186C613.541 332.118 616.595 334.057 618.026 337.094L639.052 381.73H582.531C580.369 381.73 578.426 380.407 577.632 378.394L561.327 337.091C560.385 334.704 562.142 332.118 564.705 332.118Z" fill="url(#paint17_linear_8007_33434)"/>
<path d="M596.747 355.004C597.732 358.069 597.004 361.047 595.121 361.654C593.237 362.261 590.911 360.268 589.925 357.202C588.94 354.137 589.668 351.16 591.552 350.553C593.435 349.945 595.761 351.938 596.747 355.004Z" fill="url(#paint18_linear_8007_33434)"/>
<path d="M527.533 489.477C527.269 489.477 527.001 489.423 526.743 489.31C525.729 488.862 525.26 487.657 525.697 486.618L567.64 386.741C568.077 385.702 569.253 385.222 570.268 385.669C571.283 386.116 571.751 387.321 571.315 388.36L529.371 488.237C529.046 489.012 528.308 489.477 527.533 489.477Z" fill="#7D97F4"/>
<path d="M574.784 489.477C574.009 489.477 573.271 489.013 572.946 488.237L531.002 388.36C530.566 387.321 531.034 386.116 532.049 385.669C533.063 385.222 534.24 385.701 534.676 386.741L576.62 486.618C577.057 487.657 576.588 488.862 575.573 489.309C575.316 489.423 575.048 489.477 574.784 489.477Z" fill="#7D97F4"/>
<path d="M692.702 489.477C692.439 489.477 692.171 489.423 691.913 489.309C690.899 488.862 690.43 487.657 690.866 486.618L732.81 386.741C733.247 385.702 734.422 385.222 735.438 385.669C736.452 386.116 736.921 387.321 736.485 388.36L694.541 488.237C694.215 489.012 693.478 489.477 692.702 489.477Z" fill="#7D97F4"/>
<path d="M739.954 489.477C739.179 489.477 738.441 489.013 738.115 488.237L696.172 388.36C695.735 387.321 696.204 386.116 697.218 385.669C698.232 385.222 699.409 385.701 699.846 386.741L741.79 486.618C742.226 487.657 741.757 488.862 740.743 489.309C740.486 489.423 740.217 489.477 739.954 489.477Z" fill="#7D97F4"/>
<path d="M744.867 383.757C744.995 383.137 744.82 382.496 744.392 382.009C743.964 381.522 743.326 381.24 742.654 381.24H514.76C513.875 381.24 513.051 381.663 512.575 382.363C512.098 383.062 512.034 383.941 512.405 384.695L514.875 389.711C515.44 390.86 516.666 391.595 518.014 391.595H741.09C742.345 391.595 743.423 390.761 743.661 389.605L744.867 383.757Z" fill="#91B3FA"/>
<path d="M667.58 288.34C663.182 284.374 661.865 274.842 665.675 271.077C675.55 261.324 688.848 278.911 677.878 287.747C676.172 289.122 674.075 290.123 671.885 290.113C670.243 290.105 668.794 289.435 667.58 288.34Z" fill="white"/>
<path d="M639.491 282.531C638.971 284.424 640.669 286.181 642.579 285.741C644.502 285.299 646.868 284.899 648.918 284.979C662.756 285.519 657.365 294.515 657.365 295.954C657.365 298.898 660.255 294.422 660.42 295.414C660.779 297.574 656.334 304.076 656.334 304.076C656.334 304.076 667.968 302.252 670.843 297.933C673.719 293.615 672.717 283.897 670.86 280.41C669.094 277.095 661.256 272.203 657.286 272.185C653.445 272.167 642.358 272.094 639.491 282.531Z" fill="white"/>
<path d="M656.092 298.08C656.092 298.08 658.674 290.699 662.119 293.639C665.564 296.578 659.319 300.457 656.875 301.713L656.092 298.08Z" fill="url(#paint19_linear_8007_33434)"/>
<g opacity="0.74">
<path d="M208.737 263.969C208.701 263.969 208.666 263.967 208.63 263.962L200.976 263.033C200.601 262.988 200.296 262.709 200.218 262.339L198.911 256.244C196.148 255.21 193.572 253.755 191.25 251.916L185.36 253.953C185.004 254.077 184.607 253.959 184.375 253.662L179.619 247.587C179.386 247.289 179.367 246.876 179.573 246.558L182.956 241.32C181.727 238.622 180.931 235.771 180.589 232.838L174.99 230.111C174.65 229.946 174.453 229.582 174.498 229.207L175.426 221.545C175.471 221.17 175.75 220.865 176.12 220.785L182.208 219.477C183.241 216.711 184.694 214.132 186.531 211.807L184.496 205.911C184.373 205.554 184.49 205.157 184.787 204.924L190.855 200.163C191.153 199.93 191.565 199.911 191.882 200.116L197.114 203.503C199.809 202.274 202.657 201.477 205.587 201.134L208.311 195.528C208.475 195.188 208.837 194.991 209.214 195.036L216.867 195.965C217.242 196.01 217.547 196.289 217.626 196.659L218.933 202.754C221.696 203.788 224.271 205.243 226.594 207.082L232.483 205.045C232.84 204.921 233.236 205.038 233.469 205.335L238.225 211.411C238.458 211.708 238.477 212.121 238.272 212.439L234.888 217.677C236.117 220.374 236.912 223.226 237.255 226.159L242.855 228.886C243.194 229.051 243.392 229.414 243.346 229.79L242.418 237.452C242.373 237.827 242.095 238.133 241.725 238.212L235.637 239.52C234.604 242.286 233.151 244.865 231.314 247.19L233.349 253.086C233.472 253.444 233.355 253.84 233.058 254.073L226.99 258.834C226.693 259.067 226.281 259.086 225.963 258.881L220.73 255.494C218.036 256.724 215.188 257.52 212.258 257.863L209.534 263.469C209.383 263.777 209.072 263.969 208.737 263.969ZM191.388 251.111L191.542 251.235C193.896 253.125 196.52 254.607 199.341 255.641L199.526 255.708L200.916 262.189C200.931 262.261 200.99 262.314 201.063 262.323L208.716 263.252C208.788 263.261 208.859 263.223 208.89 263.158L211.786 257.197L211.982 257.176C214.969 256.847 217.871 256.036 220.607 254.764L220.786 254.681L226.349 258.282C226.41 258.322 226.49 258.318 226.547 258.273L232.616 253.512C232.673 253.467 232.695 253.391 232.672 253.322L230.508 247.053L230.632 246.899C232.519 244.543 234 241.915 235.033 239.09L235.1 238.905L241.573 237.514C241.645 237.499 241.699 237.44 241.707 237.368L242.635 229.705C242.644 229.633 242.606 229.563 242.54 229.531L236.586 226.632L236.565 226.435C236.237 223.445 235.426 220.54 234.156 217.8L234.073 217.621L237.67 212.052C237.71 211.991 237.706 211.911 237.661 211.853L232.905 205.778C232.861 205.721 232.785 205.698 232.715 205.722L226.454 207.888L226.3 207.765C223.946 205.875 221.323 204.392 218.5 203.359L218.315 203.291L216.926 196.81C216.911 196.739 216.852 196.685 216.78 196.676L209.126 195.747C209.054 195.738 208.984 195.777 208.952 195.842L206.056 201.802L205.86 201.824C202.873 202.153 199.971 202.964 197.235 204.236L197.056 204.319L191.493 200.718C191.432 200.678 191.353 200.682 191.295 200.727L185.227 205.488C185.17 205.533 185.147 205.609 185.171 205.678L187.334 211.947L187.211 212.101C185.323 214.457 183.843 217.084 182.81 219.909L182.742 220.095L176.269 221.485C176.197 221.501 176.144 221.56 176.135 221.632L175.207 229.294C175.198 229.367 175.236 229.437 175.301 229.469L181.255 232.368L181.277 232.564C181.604 235.554 182.415 238.46 183.686 241.199L183.769 241.379L180.172 246.948C180.132 247.009 180.136 247.089 180.181 247.146L184.937 253.221C184.982 253.279 185.058 253.301 185.127 253.278L191.388 251.111ZM209.096 248.394C208.326 248.394 207.552 248.347 206.775 248.253C203.363 247.839 200.133 246.51 197.433 244.409C197.278 244.288 197.25 244.063 197.371 243.907C197.492 243.751 197.716 243.723 197.872 243.844C200.469 245.865 203.578 247.144 206.861 247.543C216.851 248.756 225.96 241.607 227.171 231.608C228.382 221.609 221.242 212.487 211.254 211.275C201.265 210.062 192.156 217.211 190.944 227.21C190.788 228.504 190.768 229.812 190.886 231.099C190.904 231.296 190.759 231.47 190.563 231.488C190.368 231.508 190.193 231.362 190.175 231.165C190.052 229.827 190.073 228.468 190.235 227.124C191.494 216.733 200.962 209.306 211.34 210.565C221.719 211.825 229.139 221.303 227.881 231.694C227.271 236.727 224.74 241.222 220.754 244.35C217.383 246.994 213.312 248.394 209.096 248.394Z" fill="white"/>
<path d="M208.923 236.715C208.048 236.715 207.171 236.553 206.33 236.228C202.625 234.798 200.772 230.616 202.2 226.906C203.629 223.196 207.806 221.341 211.512 222.771C215.218 224.201 217.071 228.383 215.642 232.093C214.95 233.891 213.6 235.311 211.842 236.091C210.907 236.506 209.916 236.715 208.923 236.715ZM202.867 227.163C201.58 230.505 203.249 234.272 206.587 235.561C208.204 236.185 209.967 236.141 211.552 235.438C213.136 234.734 214.352 233.455 214.975 231.836C216.262 228.494 214.593 224.727 211.255 223.438C207.917 222.15 204.154 223.821 202.867 227.163Z" fill="white"/>
<path d="M263.758 214.55C263.582 214.55 263.41 214.473 263.292 214.333L261.422 212.12C260.058 212.292 258.685 212.262 257.335 212.028L255.368 214.154C255.19 214.345 254.911 214.402 254.673 214.298L251.281 212.799C251.042 212.694 250.897 212.449 250.918 212.189L251.159 209.301C250.076 208.461 249.129 207.467 248.336 206.342L245.443 206.452C245.186 206.461 244.944 206.305 244.849 206.062L243.509 202.601C243.414 202.357 243.485 202.081 243.684 201.913L245.895 200.04C245.722 198.675 245.753 197.301 245.986 195.949L243.863 193.98C243.673 193.802 243.615 193.523 243.72 193.284L245.216 189.887C245.321 189.649 245.568 189.503 245.826 189.525L248.71 189.766C249.549 188.683 250.542 187.733 251.666 186.94L251.556 184.043C251.546 183.782 251.703 183.543 251.946 183.449L255.403 182.107C255.646 182.013 255.923 182.083 256.091 182.282L257.961 184.496C259.325 184.323 260.697 184.354 262.047 184.587L264.014 182.462C264.191 182.27 264.471 182.213 264.709 182.318L268.102 183.816C268.34 183.921 268.486 184.167 268.465 184.426L268.223 187.314C269.306 188.155 270.254 189.149 271.046 190.273L273.94 190.163C274.202 190.155 274.438 190.31 274.533 190.553L275.874 194.014C275.968 194.258 275.897 194.534 275.699 194.703L273.488 196.575C273.66 197.941 273.629 199.315 273.396 200.666L275.519 202.636C275.71 202.813 275.768 203.093 275.663 203.331L274.166 206.728C274.061 206.966 273.817 207.113 273.556 207.091L270.672 206.85C269.832 207.933 268.839 208.883 267.716 209.675L267.826 212.572C267.836 212.834 267.679 213.072 267.436 213.166L263.979 214.509C263.907 214.536 263.832 214.55 263.758 214.55ZM261.713 211.357L263.789 213.815L267.109 212.526L266.987 209.309L267.15 209.198C268.331 208.389 269.364 207.401 270.221 206.261L270.34 206.104L273.541 206.371L274.978 203.11L272.622 200.923L272.658 200.729C272.921 199.327 272.953 197.897 272.753 196.478L272.725 196.283L275.18 194.204L273.892 190.881L270.679 191.003L270.568 190.84C269.76 189.658 268.774 188.623 267.635 187.765L267.477 187.646L267.745 184.44L264.487 183.002L262.303 185.361L262.109 185.324C260.708 185.061 259.28 185.029 257.863 185.229L257.668 185.256L255.592 182.799L252.272 184.088L252.394 187.304L252.231 187.416C251.049 188.225 250.016 189.213 249.159 190.352L249.041 190.51L245.839 190.242L244.402 193.504L246.758 195.691L246.722 195.885C246.46 197.287 246.428 198.717 246.627 200.135L246.655 200.331L244.2 202.409L245.488 205.733L248.7 205.61L248.812 205.773C249.62 206.955 250.606 207.99 251.745 208.848L251.902 208.967L251.635 212.172L254.893 213.611L257.077 211.252L257.271 211.289C258.672 211.552 260.1 211.584 261.517 211.384L261.713 211.357ZM259.764 207.605C258.488 207.605 257.214 207.339 256.012 206.808C254.468 206.127 253.141 205.041 252.172 203.669C252.058 203.508 252.097 203.285 252.258 203.171C252.419 203.057 252.642 203.095 252.756 203.256C253.649 204.522 254.875 205.524 256.3 206.153C258.4 207.08 260.734 207.133 262.873 206.303C265.012 205.472 266.7 203.857 267.626 201.755C268.552 199.653 268.605 197.316 267.776 195.175C266.946 193.033 265.333 191.343 263.234 190.416C261.134 189.489 258.8 189.436 256.661 190.266C254.522 191.097 252.833 192.712 251.907 194.814C251.66 195.376 251.472 195.962 251.35 196.558C251.31 196.751 251.122 196.876 250.928 196.836C250.734 196.796 250.61 196.607 250.65 196.414C250.783 195.768 250.986 195.133 251.253 194.525C252.256 192.249 254.085 190.499 256.402 189.599C258.719 188.7 261.247 188.757 263.521 189.761C265.795 190.765 267.543 192.596 268.442 194.915C269.34 197.235 269.283 199.767 268.28 202.043C267.277 204.32 265.449 206.069 263.131 206.969C262.039 207.394 260.901 207.605 259.764 207.605Z" fill="white"/>
</g>
<path d="M213.065 127.227L219.349 149.9C220.202 152.977 219.684 156.274 217.92 158.935C213.488 165.617 202.653 177.683 179.68 183.839C156.348 190.09 143.14 183.658 137.456 179.421C135.397 177.887 133.902 175.72 133.194 173.251L126.315 149.24L213.065 127.227Z" fill="url(#paint20_linear_8007_33434)"/>
<path d="M163.326 98.0441L228.674 116.37C232.039 117.314 232.992 121.632 230.337 123.906C217.383 134.997 187.944 160.831 176.794 175.835C175.601 177.44 173.47 178.023 171.624 177.258L105.504 149.857C102.513 148.617 101.858 144.667 104.291 142.529C117.119 131.254 149.764 103.023 160.375 98.2568C161.303 97.8402 162.347 97.7698 163.326 98.0441Z" fill="url(#paint21_linear_8007_33434)"/>
<path d="M164.74 131.841C164.74 131.841 129.902 153.841 127.247 158.867C124.592 163.893 129.936 186.742 129.936 186.742C124.452 206.081 123.64 227.08 132.904 238.066C132.904 238.066 144.326 212.636 139.223 201.918C134.121 191.199 132.154 186.805 132.154 186.805C132.154 186.805 127.69 162.448 129.102 158.966C129.102 158.966 167.697 133.234 164.74 131.841Z" fill="url(#paint22_linear_8007_33434)"/>
<path d="M219.88 122.438L186.436 155.466L178.075 163.723L175.985 165.787L174.941 166.813C174.615 167.134 174.247 167.408 173.86 167.649C172.302 168.608 170.316 168.836 168.574 168.224L146.303 160.754C146.127 160.695 145.937 160.79 145.878 160.966C145.819 161.141 145.913 161.331 146.087 161.391L168.302 169.029C170.259 169.734 172.535 169.5 174.323 168.415C174.768 168.143 175.192 167.831 175.568 167.468L176.626 166.442L178.732 164.394L187.155 156.201L220.847 123.428C221.121 123.161 221.128 122.723 220.862 122.449C220.595 122.174 220.157 122.168 219.883 122.434L219.88 122.438Z" fill="#91B3FA"/>
<path d="M132.486 198.493L132.552 198.563L132.629 198.655L132.786 198.841L133.087 199.246C133.285 199.52 133.459 199.82 133.648 200.106L134.144 201.02C134.299 201.331 134.434 201.655 134.581 201.971C134.735 202.285 134.849 202.617 134.968 202.948C135.085 203.279 135.215 203.605 135.322 203.94L135.607 204.959C135.699 205.3 135.81 205.636 135.866 205.986L136.074 207.028C136.14 207.376 136.225 207.721 136.256 208.076C136.339 208.781 136.434 209.486 136.509 210.194L136.611 212.331C136.618 212.509 136.633 212.687 136.633 212.866L136.621 213.401L136.596 214.474C136.608 215.906 136.413 217.33 136.297 218.76C136.274 219.118 136.216 219.472 136.158 219.826L135.991 220.891C135.876 221.6 135.775 222.311 135.649 223.019C135.332 224.422 135.045 225.832 134.704 227.231L133.533 231.393L133.529 231.405C133.493 231.533 133.568 231.666 133.695 231.702C133.821 231.738 133.952 231.666 133.99 231.542L135.278 227.386C135.658 225.986 135.985 224.57 136.342 223.161C136.488 222.449 136.609 221.731 136.744 221.016L136.941 219.943C137.009 219.585 137.077 219.228 137.111 218.864C137.266 217.416 137.501 215.973 137.528 214.51L137.582 213.415L137.608 212.867C137.613 212.685 137.603 212.501 137.601 212.318L137.552 210.121C137.495 209.389 137.416 208.658 137.348 207.926C137.324 207.559 137.247 207.198 137.187 206.834L136.999 205.744C136.949 205.378 136.843 205.023 136.756 204.663L136.484 203.586C136.381 203.231 136.253 202.881 136.138 202.527C136.021 202.174 135.908 201.82 135.753 201.479C135.606 201.136 135.469 200.788 135.312 200.448L134.799 199.443C134.599 199.12 134.418 198.789 134.201 198.472L133.867 197.998L133.681 197.765L133.585 197.647L133.469 197.518C133.213 197.234 132.776 197.211 132.492 197.467C132.208 197.724 132.186 198.161 132.442 198.445C132.444 198.448 132.447 198.451 132.45 198.454L132.486 198.493Z" fill="#91B3FA"/>
<path d="M131.422 207.493L131.423 208.855L131.412 210.389L131.372 213.464L131.266 219.617L131.019 231.925C131.014 232.133 131.178 232.305 131.386 232.31C131.59 232.315 131.76 232.154 131.77 231.951L132.333 219.65L132.597 213.498L132.716 210.419L132.767 208.876L132.786 208.098L132.794 207.707C132.793 207.539 132.781 207.34 132.765 207.16C132.73 206.789 132.402 206.517 132.032 206.551C131.684 206.584 131.422 206.877 131.422 207.22V207.493Z" fill="#91B3FA"/>
<path opacity="0.69" d="M596.283 195.971L702.077 197.408C706.151 197.463 709.363 200.474 709.164 204.052L707.402 235.677C707.214 239.051 704.047 241.702 700.204 241.702H596.172C592.192 241.702 588.965 238.865 588.965 235.367V202.306C588.965 198.769 592.26 195.917 596.283 195.971Z" fill="white"/>
<path d="M698.015 147.039C707.191 144.846 712.854 135.621 710.663 126.435C708.473 117.248 699.259 111.579 690.083 113.772C680.907 115.965 675.244 125.19 677.434 134.376C679.625 143.562 688.839 149.232 698.015 147.039Z" fill="white"/>
<path d="M667.395 136.864C670.953 128.116 666.754 118.138 658.016 114.577C649.279 111.016 639.312 115.22 635.755 123.967C632.198 132.714 636.397 142.692 645.134 146.253C653.871 149.815 663.838 145.611 667.395 136.864Z" fill="white"/>
<path d="M621.197 143.092C627.867 136.414 627.867 125.587 621.197 118.909C614.526 112.231 603.712 112.231 597.041 118.909C590.371 125.587 590.371 136.414 597.041 143.092C603.712 149.77 614.526 149.77 621.197 143.092Z" fill="white"/>
<path d="M683.876 126.824C683.347 128.111 683.054 129.52 683.054 130.997C683.054 137.063 687.966 141.981 694.025 141.981C700.084 141.981 704.996 137.064 704.996 130.997C704.996 124.931 700.084 120.013 694.025 120.013C693.84 120.013 693.655 120.018 693.472 120.027V117.243C693.656 117.236 693.84 117.231 694.025 117.231C701.619 117.231 707.776 123.394 707.776 130.997C707.776 138.6 701.619 144.763 694.025 144.763C686.431 144.763 680.274 138.6 680.274 130.997C680.274 129.125 680.648 127.34 681.324 125.713L683.876 126.824Z" fill="url(#paint23_linear_8007_33434)"/>
<path d="M645.915 140.29C647.608 141.36 649.612 141.981 651.761 141.981C657.82 141.981 662.733 137.063 662.733 130.997C662.733 124.931 657.821 120.013 651.761 120.013C651.575 120.013 651.391 120.018 651.208 120.027V117.243C651.391 117.235 651.576 117.23 651.761 117.23C659.355 117.23 665.512 123.394 665.512 130.997C665.512 138.6 659.355 144.763 651.761 144.763C649.111 144.763 646.636 144.012 644.537 142.711L645.915 140.29Z" fill="url(#paint24_linear_8007_33434)"/>
<path d="M599.969 137.173C601.943 140.075 605.27 141.981 609.042 141.981C615.101 141.981 620.013 137.063 620.013 130.997C620.013 124.931 615.101 120.013 609.042 120.013C608.856 120.013 608.672 120.018 608.489 120.027V117.243C608.672 117.235 608.857 117.23 609.042 117.23C616.636 117.23 622.793 123.394 622.793 130.997C622.793 138.6 616.636 144.763 609.042 144.763C604.344 144.763 600.197 142.404 597.716 138.805L599.969 137.173Z" fill="url(#paint25_linear_8007_33434)"/>
<g opacity="0.69">
<path d="M680.109 154.781H707.943C709.69 154.781 711.107 156.199 711.107 157.948C711.107 159.698 709.69 161.115 707.943 161.115H680.109C678.362 161.115 676.945 159.698 676.945 157.948C676.945 156.2 678.362 154.781 680.109 154.781Z" fill="white"/>
<path d="M637.658 154.781H665.493C667.24 154.781 668.656 156.199 668.656 157.948C668.656 159.698 667.24 161.115 665.493 161.115H637.658C635.911 161.115 634.495 159.698 634.495 157.948C634.495 156.2 635.911 154.781 637.658 154.781Z" fill="white"/>
<path d="M623.042 161.115H595.207C593.46 161.115 592.044 159.698 592.044 157.948C592.044 156.199 593.46 154.781 595.207 154.781H623.042C624.789 154.781 626.205 156.199 626.205 157.948C626.205 159.698 624.789 161.115 623.042 161.115Z" fill="white"/>
<path d="M680.109 164.634H707.943C709.69 164.634 711.107 166.052 711.107 167.801V186.452C711.107 188.201 709.69 189.619 707.943 189.619H680.109C678.362 189.619 676.945 188.201 676.945 186.452V167.801C676.945 166.053 678.362 164.634 680.109 164.634Z" fill="white"/>
<path d="M637.658 164.634H665.493C667.24 164.634 668.656 166.052 668.656 167.801V186.452C668.656 188.201 667.24 189.619 665.493 189.619H637.658C635.911 189.619 634.495 188.201 634.495 186.452V167.801C634.495 166.053 635.911 164.634 637.658 164.634Z" fill="white"/>
<path d="M595.207 164.634H623.042C624.789 164.634 626.205 166.052 626.205 167.801V186.452C626.205 188.201 624.789 189.619 623.042 189.619H595.207C593.46 189.619 592.044 188.201 592.044 186.452V167.801C592.044 166.053 593.461 164.634 595.207 164.634Z" fill="white"/>
</g>
<path d="M555.4 46.4472L710.739 44.5968C713.785 44.5604 714.502 46.9898 714.495 48.3284L714.837 99.3098C714.83 100.657 713.471 101.788 710.405 101.772C682.316 101.628 559.786 101.096 554.283 101.241C548.843 101.385 551.028 60.9672 551.758 50.5802C551.847 49.2957 552.477 46.4819 555.4 46.4472Z" fill="url(#paint26_linear_8007_33434)"/>
<path d="M710.558 100.107L710.534 100.107C688.203 100.031 575.761 99.6529 555.139 99.7067L555.026 99.707L554.978 99.6047C552.988 95.4109 552.887 78.2746 554.719 55.9477C554.743 55.6593 555.163 55.5524 555.515 55.5485L710.854 53.7788C711.111 53.7763 711.272 53.8202 711.37 53.8574C711.62 53.9504 711.671 54.0924 711.67 54.195L711.352 99.6865C711.35 99.9728 710.952 100.104 710.558 100.107ZM560.347 99.3442C590.156 99.3442 689.672 99.6784 710.536 99.7495L710.559 99.7499C710.788 99.7481 710.947 99.6907 710.995 99.6543L711.313 54.2244C711.301 54.217 711.28 54.2056 711.246 54.1925C711.176 54.1663 711.059 54.1345 710.858 54.137L555.52 55.9067C555.238 55.9099 555.087 55.9849 555.064 56.0121C553.263 78.0668 553.335 95.0357 555.254 99.3495C556.593 99.3457 558.308 99.3442 560.347 99.3442Z" fill="#91B3FA"/>
<path d="M631.722 67.3908C631.088 66.7343 630.215 66.3641 629.304 66.3655L567.552 66.4741C566.647 66.4756 565.782 66.8433 565.151 67.4938C564.521 68.144 564.18 69.0218 564.205 69.9275L564.814 91.3738C564.866 93.1867 566.345 94.6311 568.157 94.6364L628.506 94.8141C630.314 94.8194 631.801 93.3884 631.867 91.5787L632.66 69.8461C632.693 68.9337 632.355 68.0474 631.722 67.3908Z" fill="#91B3FA"/>
<path d="M641.45 58.6359L563.752 59.3944C562.878 59.4029 562.283 60.2976 562.283 61.3916V61.427C562.283 62.5211 562.892 63.4095 563.765 63.4119L641.518 63.642C642.882 63.6462 643.966 62.5313 643.962 61.1531L643.949 61.1085C643.944 59.7295 642.815 58.6224 641.45 58.6359Z" fill="#BDD0FB"/>
<path d="M704.184 67.6669C703.771 67.2366 703.107 66.9892 702.511 66.987L640.226 66.7676C639.614 66.7655 639.006 67.0175 638.588 67.4641C638.17 67.9112 637.946 68.5114 637.988 69.1223L638.069 70.37C638.15 71.5298 639.115 72.4267 640.276 72.4186L702.592 71.9893C703.77 71.9808 704.92 71.0524 704.963 69.8741L704.984 69.2802C705.006 68.6842 704.597 68.0973 704.184 67.6669Z" fill="#91B3FA"/>
<path d="M703.873 76.1562C703.46 75.7258 702.796 75.4784 702.2 75.4763L639.915 75.2568C639.304 75.2547 638.696 75.5067 638.278 75.9534C637.86 76.4004 637.635 77.0007 637.677 77.6116L637.759 78.8592C637.84 80.0191 638.805 80.916 639.966 80.9078L702.282 80.4785C703.459 80.47 704.609 79.5416 704.652 78.3634L704.674 77.7695C704.696 77.1734 704.286 76.5866 703.873 76.1562Z" fill="#91B3FA"/>
<path d="M703.563 84.6458C703.15 84.2154 702.487 83.968 701.89 83.9659L639.605 83.7465C638.994 83.7443 638.386 83.9963 637.968 84.443C637.55 84.89 637.325 85.4903 637.367 86.1012L637.449 87.3489C637.53 88.5087 638.494 89.4056 639.656 89.3975L701.972 88.9681C703.149 88.9596 704.299 88.0313 704.342 86.853L704.364 86.2591C704.386 85.6627 703.976 85.0762 703.563 84.6458Z" fill="#91B3FA"/>
<path d="M690.566 49.1772C690.551 50.8127 689.124 52.1311 687.49 52.123L685.269 52.1113C683.636 52.1032 682.16 50.7692 682.175 49.1333L682.176 49.0604C682.19 47.4248 683.615 46.106 685.249 46.1142L687.471 46.1258C689.104 46.134 690.581 47.468 690.566 49.1039L690.566 49.1772Z" fill="#BDD0FB"/>
<path d="M699.889 49.2235C699.874 50.8591 698.527 52.1782 696.893 52.1701L694.866 52.1602C693.232 52.152 691.949 50.8194 691.964 49.1839L691.965 49.111C691.98 47.4754 693.251 46.1556 694.885 46.1637L696.95 46.174C698.584 46.1821 699.904 47.5147 699.889 49.1506L699.889 49.2235Z" fill="#BDD0FB"/>
<path d="M709.212 49.2696C709.197 50.9051 707.93 52.2253 706.296 52.2168L704.229 52.2066C702.595 52.1984 701.272 50.8659 701.287 49.2299L701.288 49.157C701.302 47.5215 702.654 46.2023 704.288 46.2105L706.313 46.2204C707.947 46.2285 709.227 47.5611 709.212 49.1967L709.212 49.2696Z" fill="#BDD0FB"/>
<path d="M711.072 36.0042H554.587C552.452 36.0042 550.705 34.2554 550.705 32.118V22.7251C550.705 20.5877 552.452 18.8389 554.587 18.8389H711.072C713.207 18.8389 714.953 20.5877 714.953 22.7251V32.118C714.953 34.2551 713.207 36.0042 711.072 36.0042Z" fill="url(#paint27_linear_8007_33434)"/>
<path d="M685.918 27.1154C685.9 29.1913 684.089 30.8647 682.015 30.8544L679.197 30.8396C677.123 30.8293 675.25 29.1361 675.269 27.0602L675.27 26.9678C675.288 24.892 677.096 23.2185 679.17 23.2288L681.99 23.2437C684.063 23.2539 685.938 24.9472 685.919 27.023L685.918 27.1154Z" fill="#BDD0FB"/>
<path d="M697.751 27.1742C697.732 29.2501 696.022 30.9246 693.949 30.914L691.376 30.9012C689.302 30.8909 687.675 29.1998 687.693 27.124L687.694 27.0312C687.712 24.9554 689.326 23.2802 691.399 23.2905L694.021 23.3035C696.094 23.3138 697.77 25.0053 697.751 27.0811L697.751 27.1742Z" fill="#BDD0FB"/>
<path d="M709.583 27.2326C709.565 29.3085 707.957 30.9837 705.883 30.9734L703.259 30.9603C701.186 30.9501 699.507 29.2586 699.526 27.1827L699.526 27.09C699.545 25.0141 701.26 23.34 703.334 23.3503L705.905 23.363C707.978 23.3733 709.603 25.0644 709.584 27.1403L709.583 27.2326Z" fill="#BDD0FB"/>
<path d="M669.396 29.9005H622.663C621.309 29.9005 620.202 28.7916 620.202 27.4364V26.9225C620.202 25.5673 621.309 24.4584 622.663 24.4584H669.396C670.75 24.4584 671.857 25.5673 671.857 26.9225V27.4364C671.857 28.7916 670.75 29.9005 669.396 29.9005Z" fill="#BDD0FB"/>
<path d="M271.497 426.687L271.627 426.98L271.87 426.687H271.497Z" fill="url(#paint28_linear_8007_33434)"/>
<path d="M399.655 261.568C396.131 252.551 390.884 245.559 385.123 238.664C380.785 233.47 374.03 230.959 367.35 232.016C335.923 236.987 292.677 241.316 273.456 243.74C266.744 244.586 260.605 247.969 256.181 253.094C239.687 272.204 204.736 322.518 238.273 375.481C238.623 376.035 239.238 376.369 239.893 376.369H264.298C265.058 375.193 265.297 374.824 266.057 373.649C258.96 357.821 259.951 340.477 267.893 321.438C268.585 319.778 270.971 319.884 271.511 321.6C277.716 341.281 281.402 359.332 283.587 374.713C283.722 375.662 284.531 376.369 285.488 376.369H360.038C360.972 376.369 361.765 375.696 361.927 374.775C368.805 335.517 387.201 293.093 393.231 279.798C394.43 277.156 396.541 274.996 399.182 273.8C400.005 273.427 400.818 273.042 401.623 272.656C402.477 272.247 402.903 271.279 402.636 270.369C401.768 267.407 400.786 264.461 399.655 261.568Z" fill="url(#paint29_linear_8007_33434)"/>
<path d="M465.97 221.068C464.241 219.384 464.321 216.58 466.142 214.998L681.354 22.7569C681.958 22.2178 682.826 22.0943 683.556 22.444C684.836 23.0574 685.092 24.7722 684.047 25.7342L471.629 221.149C470.02 222.629 467.536 222.594 465.97 221.068Z" fill="url(#paint30_linear_8007_33434)"/>
<path d="M266.814 311.85C260.449 293.508 261.778 272.244 262.206 267.245C262.258 266.646 262.792 266.211 263.388 266.279C263.961 266.344 264.378 266.852 264.328 267.427C263.912 272.257 262.588 293.165 268.823 311.135C269.014 311.688 268.734 312.292 268.185 312.493L268.184 312.493C267.628 312.697 267.009 312.41 266.814 311.85Z" fill="url(#paint31_linear_8007_33434)"/>
<path d="M470.537 242.382C440.629 253.325 373.514 232.036 373.514 232.036L372.51 282.355C423.547 298.51 456.758 293.806 478.355 280.248C479.698 264.839 475.072 251.428 470.537 242.382Z" fill="url(#paint32_linear_8007_33434)"/>
<path d="M518.156 188.579L505.639 186.097C505.639 186.097 502.226 225.968 474.348 240.707C473.154 241.338 471.877 241.892 470.538 242.382C475.072 251.427 479.698 264.839 478.355 280.248C522.241 252.698 518.156 188.579 518.156 188.579Z" fill="url(#paint33_linear_8007_33434)"/>
<path d="M506.274 189.573L505.639 186.097C505.639 186.097 503.029 177.609 509.935 169.252C519.917 157.173 526.958 160.673 526.958 160.673C526.958 160.673 526.705 164.198 526.74 166.489C526.769 168.338 528.256 169.055 529.616 167.803L546.639 152.143C546.639 152.143 551.195 176.838 516.257 193.199L506.274 189.573Z" fill="url(#paint34_linear_8007_33434)"/>
<path d="M305.321 201.57L303.077 240.757C303.011 241.913 303.764 242.955 304.885 243.238C309.852 244.493 323.582 246.989 335.531 240.182C337.08 239.3 337.797 237.441 337.31 235.725L327.317 200.514L305.321 201.57Z" fill="url(#paint35_linear_8007_33434)"/>
<path d="M336.435 161.659C336.435 161.659 347.382 186.833 348.117 200.046C348.852 213.26 351.696 221.834 336.435 224.494C321.175 227.155 308.319 219.544 301.354 206.382C301.354 206.382 290.442 186.101 292.89 177.795C295.338 169.489 336.435 161.659 336.435 161.659Z" fill="url(#paint36_linear_8007_33434)"/>
<path d="M306.569 196.919L307.438 196.536C308.543 196.048 309.016 194.73 308.461 193.655C306.309 189.492 302.114 179.953 307.533 177.728C314.518 174.861 342.184 169.212 348.153 159.384C353.89 149.938 348.807 137.745 341.168 134.277C340.656 134.045 340.054 134.229 339.791 134.726L339.155 135.932C338.719 136.758 337.501 136.633 337.242 135.736C336.993 134.875 335.849 134.708 335.374 135.468C333.539 138.408 328.586 143.175 315.339 145.623C296.512 149.101 284.065 156.729 283.755 169.753C283.735 170.581 282.856 171.041 282.15 170.61C280.76 169.762 278.535 169.364 275.562 171.867C270.392 176.219 272.508 187.51 283.842 196.797C284.38 197.238 284.376 198.08 283.793 198.46C281.738 199.799 278.675 202.985 286.612 207.233C294.821 211.626 300.952 211.266 303.313 210.876C303.9 210.779 304.278 210.21 304.15 209.628L301.631 198.181C301.488 197.533 301.981 196.919 302.644 196.919H306.569Z" fill="url(#paint37_linear_8007_33434)"/>
<path d="M307.043 199.334C307.043 199.334 302.867 183.253 295.665 187.762C288.463 192.271 299.402 205.78 305.192 206.382L307.043 199.334Z" fill="url(#paint38_linear_8007_33434)"/>
<path d="M381.522 310.899L382.09 311.808C382.147 311.897 382.12 312.014 382.031 312.07C381.943 312.127 381.825 312.1 381.769 312.011C381.768 312.01 381.767 312.008 381.767 312.007L381.217 311.085C381.167 311 381.194 310.89 381.279 310.839C381.362 310.79 381.471 310.817 381.522 310.899Z" fill="white"/>
<path d="M383.434 313.917L384.017 314.815C384.087 314.92 384.058 315.063 383.952 315.132C383.847 315.201 383.705 315.172 383.636 315.067C383.635 315.066 383.633 315.063 383.632 315.062L383.066 314.149C383.003 314.047 383.035 313.913 383.136 313.849C383.237 313.787 383.369 313.818 383.434 313.917Z" fill="white"/>
<path d="M385.398 316.898L385.998 317.787C386.08 317.906 386.049 318.069 385.93 318.151C385.811 318.233 385.648 318.203 385.566 318.083C385.566 318.083 385.563 318.079 385.563 318.078L384.976 317.178C384.899 317.061 384.932 316.904 385.049 316.827C385.165 316.751 385.321 316.784 385.398 316.898Z" fill="white"/>
<path d="M387.42 319.842L388.039 320.714L388.04 320.716C388.133 320.847 388.103 321.029 387.972 321.122C387.841 321.215 387.66 321.184 387.567 321.053C387.566 321.052 387.565 321.05 387.564 321.049L386.956 320.163C386.868 320.035 386.901 319.859 387.029 319.77C387.156 319.683 387.329 319.714 387.418 319.839L387.42 319.842Z" fill="white"/>
<path d="M389.511 322.73L390.155 323.585L390.157 323.587C390.263 323.727 390.235 323.928 390.094 324.034C389.953 324.141 389.753 324.113 389.647 323.972C389.646 323.971 389.644 323.969 389.644 323.967L389.011 323.098C388.91 322.959 388.94 322.765 389.079 322.664C389.216 322.563 389.408 322.592 389.51 322.727L389.511 322.73Z" fill="white"/>
<path d="M391.686 325.555L392.355 326.389L392.357 326.392C392.477 326.542 392.453 326.761 392.304 326.882C392.154 327.002 391.935 326.978 391.814 326.828C391.814 326.827 391.811 326.825 391.811 326.824L391.151 325.974C391.036 325.826 391.063 325.613 391.211 325.497C391.357 325.383 391.568 325.408 391.684 325.552L391.686 325.555Z" fill="white"/>
<path d="M393.946 328.31L394.641 329.122L394.644 329.125C394.779 329.283 394.761 329.521 394.603 329.656C394.445 329.792 394.207 329.773 394.072 329.616C394.071 329.615 394.069 329.612 394.068 329.611L393.381 328.782C393.251 328.626 393.273 328.393 393.429 328.264C393.584 328.135 393.813 328.155 393.943 328.307L393.946 328.31Z" fill="white"/>
<path d="M396.295 330.988L397.014 331.777L397.017 331.78C397.166 331.944 397.155 332.198 396.992 332.347C396.828 332.497 396.575 332.485 396.425 332.322L396.423 332.319L395.705 331.517C395.559 331.354 395.573 331.103 395.736 330.957C395.898 330.812 396.145 330.825 396.292 330.985L396.295 330.988Z" fill="white"/>
<path d="M398.727 333.587L399.476 334.348L399.479 334.352C399.641 334.517 399.64 334.782 399.475 334.944C399.31 335.107 399.045 335.105 398.883 334.94L398.88 334.937L398.132 334.161C397.974 333.997 397.979 333.735 398.143 333.576C398.306 333.418 398.565 333.422 398.724 333.584L398.727 333.587Z" fill="white"/>
<path d="M401.256 336.089L402.034 336.819L402.038 336.823C402.214 336.988 402.223 337.264 402.058 337.44C401.893 337.616 401.617 337.625 401.442 337.46L401.438 337.457L400.66 336.712C400.488 336.547 400.482 336.274 400.646 336.102C400.809 335.931 401.08 335.924 401.252 336.086L401.256 336.089Z" fill="white"/>
<path d="M403.885 338.483L404.693 339.178L404.698 339.182C404.888 339.345 404.91 339.632 404.746 339.822C404.583 340.013 404.297 340.034 404.107 339.871L404.104 339.868L403.293 339.157C403.107 338.994 403.088 338.71 403.251 338.524C403.414 338.338 403.694 338.319 403.88 338.479L403.885 338.483Z" fill="white"/>
<path d="M406.616 340.755L407.456 341.411L407.461 341.415C407.666 341.575 407.703 341.871 407.543 342.077C407.383 342.282 407.087 342.319 406.882 342.159L406.878 342.156L406.034 341.484C405.833 341.323 405.799 341.03 405.96 340.828C406.119 340.628 406.409 340.594 406.61 340.751L406.616 340.755Z" fill="white"/>
<path d="M409.452 342.889L410.324 343.5L410.33 343.505C410.551 343.66 410.605 343.965 410.45 344.186C410.295 344.407 409.991 344.461 409.77 344.306L409.766 344.303L408.888 343.675C408.67 343.52 408.62 343.218 408.775 343C408.929 342.784 409.228 342.733 409.445 342.885L409.452 342.889Z" fill="white"/>
<path d="M412.395 344.868L413.299 345.428L413.306 345.432C413.544 345.58 413.617 345.892 413.47 346.13C413.323 346.368 413.011 346.442 412.774 346.294L412.769 346.291L411.856 345.713C411.623 345.565 411.553 345.255 411.701 345.021C411.848 344.789 412.154 344.719 412.387 344.863L412.395 344.868Z" fill="white"/>
<path d="M415.445 346.67L416.38 347.173L416.389 347.178C416.644 347.315 416.739 347.633 416.603 347.888C416.466 348.143 416.148 348.238 415.893 348.102L415.889 348.099L414.941 347.577C414.69 347.439 414.599 347.123 414.737 346.872C414.874 346.623 415.186 346.531 415.436 346.665L415.445 346.67Z" fill="white"/>
<path d="M418.598 348.275L419.564 348.714L419.574 348.718C419.846 348.842 419.966 349.164 419.843 349.436C419.719 349.708 419.398 349.829 419.126 349.705L419.121 349.703L418.14 349.244C417.871 349.119 417.755 348.8 417.88 348.531C418.005 348.264 418.321 348.148 418.588 348.269L418.598 348.275Z" fill="white"/>
<path d="M421.847 349.665L422.841 350.038L422.852 350.042C423.135 350.148 423.279 350.464 423.173 350.747C423.067 351.031 422.752 351.175 422.469 351.069L422.467 351.068L421.452 350.684C421.17 350.577 421.027 350.262 421.134 349.98C421.241 349.697 421.556 349.555 421.838 349.662L421.847 349.665Z" fill="white"/>
<path d="M425.186 350.816L426.202 351.11L426.215 351.114C426.508 351.199 426.677 351.506 426.593 351.8C426.508 352.094 426.201 352.263 425.907 352.178L425.906 352.178L424.866 351.873C424.573 351.787 424.406 351.481 424.491 351.188C424.577 350.895 424.883 350.728 425.175 350.813L425.186 350.816Z" fill="white"/>
<path d="M428.599 351.702L429.635 351.912L429.649 351.915C429.951 351.977 430.147 352.272 430.085 352.575C430.024 352.878 429.728 353.074 429.426 353.012L429.424 353.012L428.362 352.792C428.06 352.73 427.866 352.435 427.929 352.133C427.991 351.831 428.286 351.637 428.587 351.699L428.599 351.702Z" fill="white"/>
<path d="M432.072 352.303L433.122 352.427L433.136 352.429C433.445 352.466 433.667 352.747 433.631 353.057C433.594 353.367 433.313 353.589 433.004 353.552H433.002L431.924 353.421C431.616 353.384 431.396 353.103 431.433 352.794C431.47 352.485 431.751 352.264 432.06 352.302L432.072 352.303Z" fill="white"/>
<path d="M435.582 352.617L436.639 352.656L436.653 352.656C436.968 352.668 437.213 352.933 437.202 353.249C437.19 353.564 436.925 353.81 436.61 353.798H436.609L435.525 353.754C435.211 353.742 434.967 353.476 434.979 353.162C434.992 352.848 435.257 352.603 435.571 352.616L435.582 352.617Z" fill="white"/>
<path d="M439.108 352.652L440.166 352.611L440.179 352.611C440.497 352.599 440.765 352.847 440.777 353.165C440.79 353.484 440.542 353.752 440.224 353.765H440.222L439.139 353.803C438.822 353.814 438.555 353.566 438.544 353.248C438.533 352.931 438.781 352.664 439.098 352.653L439.108 352.652Z" fill="white"/>
<path d="M442.63 352.426L443.683 352.31L443.694 352.308C444.014 352.273 444.302 352.504 444.337 352.824C444.372 353.144 444.141 353.432 443.822 353.468H443.82L442.743 353.583C442.424 353.617 442.138 353.385 442.104 353.066C442.07 352.747 442.301 352.461 442.62 352.427L442.63 352.426Z" fill="white"/>
<path d="M446.131 351.958L447.175 351.773L447.185 351.772C447.505 351.715 447.81 351.929 447.867 352.249C447.923 352.569 447.71 352.875 447.39 352.931L447.388 352.932L446.322 353.117C446.002 353.172 445.699 352.958 445.644 352.638C445.589 352.319 445.803 352.015 446.122 351.96L446.131 351.958Z" fill="white"/>
<path d="M449.598 351.269L450.63 351.023L450.64 351.02C450.959 350.944 451.279 351.142 451.355 351.461C451.431 351.781 451.235 352.101 450.915 352.178L450.914 352.178L449.861 352.426C449.542 352.501 449.224 352.303 449.149 351.984C449.074 351.665 449.271 351.346 449.59 351.271L449.598 351.269Z" fill="white"/>
<path d="M453.024 350.382L454.043 350.08L454.051 350.077C454.369 349.983 454.703 350.165 454.797 350.482C454.891 350.801 454.709 351.134 454.392 351.229L454.39 351.229L453.353 351.533C453.036 351.626 452.704 351.444 452.611 351.126C452.518 350.809 452.7 350.476 453.017 350.384L453.024 350.382Z" fill="white"/>
<path d="M456.402 349.316L457.406 348.965L457.414 348.962C457.73 348.852 458.075 349.019 458.185 349.335C458.296 349.651 458.129 349.997 457.813 350.107L457.812 350.108L456.791 350.461C456.476 350.57 456.132 350.403 456.023 350.087C455.914 349.772 456.081 349.428 456.396 349.319L456.402 349.316Z" fill="white"/>
<path d="M459.731 348.094L460.72 347.702L460.727 347.699C461.039 347.575 461.392 347.728 461.515 348.04C461.639 348.353 461.488 348.705 461.175 348.829L460.173 349.229C459.861 349.354 459.506 349.202 459.382 348.889C459.257 348.576 459.41 348.222 459.722 348.097L459.723 348.096L459.731 348.094Z" fill="white"/>
<path d="M463.011 346.74L463.983 346.31L463.989 346.307C464.294 346.172 464.649 346.31 464.784 346.615C464.919 346.919 464.782 347.275 464.478 347.41L463.495 347.848C463.19 347.984 462.833 347.847 462.697 347.542C462.561 347.237 462.698 346.879 463.003 346.743L463.004 346.743L463.011 346.74Z" fill="white"/>
<path d="M466.237 345.263L467.196 344.797L467.201 344.794C467.498 344.65 467.855 344.774 468 345.071C468.144 345.369 468.021 345.726 467.724 345.87L466.756 346.344C466.458 346.489 466.099 346.366 465.955 346.068C465.809 345.771 465.933 345.412 466.23 345.266L466.231 345.266L466.237 345.263Z" fill="white"/>
<path d="M469.417 343.673L470.362 343.176L470.366 343.174C470.656 343.021 471.014 343.133 471.166 343.423C471.318 343.713 471.208 344.071 470.918 344.223L469.966 344.728C469.675 344.881 469.316 344.77 469.163 344.48C469.009 344.189 469.12 343.83 469.41 343.676L469.412 343.676L469.417 343.673Z" fill="white"/>
<path d="M472.547 341.987L473.478 341.463L473.482 341.461C473.765 341.302 474.123 341.403 474.282 341.686C474.44 341.97 474.341 342.328 474.058 342.487L473.121 343.016C472.838 343.176 472.479 343.076 472.319 342.793C472.158 342.509 472.258 342.149 472.542 341.989L472.543 341.988L472.547 341.987Z" fill="white"/>
<path d="M475.637 340.218L476.557 339.675L476.56 339.673C476.837 339.509 477.194 339.601 477.358 339.879C477.521 340.156 477.431 340.513 477.153 340.677L476.229 341.227C475.951 341.392 475.593 341.3 475.428 341.022C475.263 340.744 475.355 340.386 475.632 340.221L475.634 340.22L475.637 340.218Z" fill="white"/>
<path d="M478.693 338.386L479.603 337.827L479.605 337.825C479.877 337.658 480.233 337.743 480.4 338.016C480.567 338.288 480.483 338.643 480.211 338.81L479.298 339.375C479.026 339.544 478.669 339.459 478.501 339.186C478.332 338.914 478.417 338.556 478.689 338.388L478.691 338.388L478.693 338.386Z" fill="white"/>
<path d="M481.72 336.504L482.625 335.931C482.892 335.761 483.246 335.839 483.416 336.107C483.586 336.374 483.507 336.728 483.241 336.899L482.334 337.476C482.066 337.647 481.712 337.568 481.541 337.3C481.371 337.032 481.45 336.676 481.718 336.506L481.719 336.505L481.72 336.504Z" fill="white"/>
<path d="M484.729 334.584L485.628 334.003C485.892 333.832 486.243 333.908 486.414 334.171C486.585 334.435 486.51 334.786 486.247 334.957L485.347 335.542C485.083 335.713 484.73 335.638 484.559 335.374C484.388 335.11 484.463 334.757 484.727 334.586L484.729 334.584Z" fill="white"/>
<path d="M487.723 332.641L488.621 332.055C488.881 331.884 489.23 331.958 489.4 332.218C489.57 332.479 489.498 332.828 489.238 332.998L488.341 333.587C488.08 333.758 487.731 333.685 487.559 333.424C487.388 333.163 487.461 332.813 487.722 332.642L487.723 332.641Z" fill="white"/>
<path d="M490.714 330.686L491.611 330.098C491.869 329.93 492.215 330.002 492.384 330.261C492.552 330.519 492.481 330.864 492.223 331.033L491.328 331.622C491.069 331.793 490.722 331.721 490.553 331.463C490.383 331.204 490.454 330.857 490.712 330.687L490.714 330.686Z" fill="white"/>
<path d="M493.707 328.73L494.607 328.146C494.863 327.979 495.205 328.052 495.372 328.309C495.538 328.566 495.466 328.908 495.209 329.074L494.313 329.661C494.056 329.829 493.713 329.757 493.545 329.501C493.377 329.244 493.449 328.9 493.705 328.732L493.707 328.73Z" fill="white"/>
<path d="M496.71 326.788L497.615 326.21C497.87 326.047 498.209 326.121 498.372 326.377C498.535 326.632 498.46 326.972 498.205 327.135L497.304 327.714C497.049 327.879 496.709 327.806 496.544 327.551C496.379 327.295 496.452 326.955 496.707 326.79L496.71 326.788Z" fill="white"/>
<path d="M499.733 324.871L500.645 324.302C500.899 324.143 501.235 324.222 501.393 324.476C501.552 324.731 501.474 325.067 501.219 325.226L501.219 325.226L500.313 325.794L500.311 325.796C500.056 325.956 499.72 325.878 499.56 325.623C499.4 325.368 499.477 325.031 499.732 324.871L499.733 324.871Z" fill="white"/>
<path d="M502.784 322.996L503.707 322.444C503.958 322.293 504.284 322.375 504.435 322.627C504.584 322.878 504.504 323.202 504.255 323.354L504.253 323.356L503.34 323.912L503.337 323.913C503.085 324.067 502.755 323.987 502.602 323.734C502.448 323.481 502.528 323.152 502.78 322.998L502.784 322.996Z" fill="white"/>
<path d="M505.872 321.176L506.807 320.642C507.054 320.501 507.369 320.587 507.511 320.835C507.651 321.081 507.567 321.395 507.322 321.537L507.319 321.539L506.395 322.077L506.392 322.079C506.143 322.224 505.825 322.14 505.68 321.891C505.536 321.642 505.62 321.323 505.868 321.178L505.872 321.176Z" fill="white"/>
<path d="M509.002 319.422L509.949 318.911C510.192 318.779 510.496 318.87 510.628 319.114C510.758 319.357 510.669 319.659 510.428 319.792L510.424 319.794L509.489 320.309L509.485 320.311C509.24 320.445 508.933 320.356 508.798 320.111C508.664 319.866 508.753 319.558 508.998 319.424L509.002 319.422Z" fill="white"/>
<path d="M512.178 317.751L513.145 317.271C513.385 317.152 513.677 317.25 513.796 317.491C513.914 317.731 513.818 318.021 513.58 318.142L513.573 318.145L512.623 318.626L512.617 318.629C512.375 318.751 512.08 318.654 511.958 318.412C511.835 318.17 511.932 317.875 512.174 317.752L512.178 317.751Z" fill="white"/>
<path d="M515.432 316.213L516.429 315.791C516.669 315.69 516.946 315.802 517.047 316.042C517.148 316.281 517.037 316.556 516.8 316.659L516.79 316.663L515.816 317.084L515.806 317.089C515.565 317.193 515.285 317.082 515.181 316.841C515.077 316.599 515.187 316.319 515.429 316.214L515.432 316.213Z" fill="white"/>
<path d="M518.8 314.903L519.834 314.572C520.074 314.495 520.331 314.628 520.408 314.868C520.484 315.107 520.354 315.362 520.116 315.441L520.102 315.446L519.098 315.777L519.084 315.781C518.842 315.861 518.582 315.729 518.502 315.487C518.423 315.245 518.554 314.985 518.796 314.905L518.8 314.903Z" fill="white"/>
<path d="M522.294 313.939L523.367 313.737C523.606 313.692 523.837 313.85 523.882 314.09C523.927 314.328 523.771 314.558 523.534 314.605L523.515 314.608L522.48 314.812L522.462 314.815C522.22 314.863 521.986 314.705 521.939 314.463C521.891 314.222 522.049 313.987 522.29 313.94L522.294 313.939Z" fill="white"/>
<path d="M525.901 313.458L526.994 313.428C527.23 313.422 527.425 313.607 527.432 313.843C527.438 314.077 527.255 314.273 527.021 314.281L526.998 314.282L525.95 314.319L525.928 314.319C525.69 314.328 525.49 314.142 525.482 313.904C525.473 313.666 525.659 313.466 525.897 313.457L525.901 313.458Z" fill="white"/>
<path d="M529.546 313.608L530.625 313.794C530.849 313.833 530.999 314.046 530.961 314.27C530.922 314.493 530.712 314.643 530.489 314.606L530.465 314.602L529.432 314.433L529.408 314.429C529.181 314.392 529.027 314.178 529.065 313.951C529.102 313.724 529.316 313.57 529.542 313.607L529.546 313.608Z" fill="white"/>
<path d="M533.087 314.467L534.11 314.851C534.315 314.928 534.419 315.157 534.342 315.362C534.266 315.566 534.039 315.67 533.835 315.595L533.815 315.588L532.829 315.227L532.808 315.22C532.6 315.144 532.493 314.913 532.569 314.705C532.645 314.497 532.876 314.39 533.083 314.466L533.087 314.467Z" fill="white"/>
<path d="M536.405 315.953L537.344 316.505C537.522 316.609 537.581 316.837 537.477 317.014C537.374 317.19 537.15 317.25 536.973 317.15L536.957 317.141L536.041 316.621L536.025 316.612C535.842 316.508 535.778 316.276 535.882 316.093C535.985 315.911 536.217 315.846 536.399 315.95C536.401 315.951 536.404 315.952 536.405 315.953Z" fill="white"/>
<path d="M539.428 317.956L540.271 318.642C540.419 318.763 540.442 318.981 540.321 319.129C540.202 319.276 539.988 319.299 539.84 319.183L539.828 319.173L538.998 318.518L538.986 318.509C538.833 318.388 538.807 318.165 538.927 318.012C539.048 317.858 539.27 317.832 539.424 317.953C539.425 317.953 539.427 317.955 539.428 317.956Z" fill="white"/>
<path d="M542.119 320.377L542.856 321.171C542.976 321.301 542.969 321.502 542.84 321.622C542.712 321.741 542.513 321.735 542.392 321.609L542.383 321.6L541.652 320.835L541.643 320.825C541.518 320.695 541.523 320.488 541.653 320.363C541.784 320.238 541.99 320.242 542.115 320.373C542.116 320.374 542.118 320.376 542.119 320.377Z" fill="white"/>
<path d="M544.449 323.136L545.075 324.02C545.169 324.152 545.138 324.334 545.006 324.428C544.875 324.52 544.695 324.491 544.601 324.362L544.594 324.352L543.968 323.496L543.962 323.487C543.864 323.353 543.893 323.165 544.027 323.067C544.161 322.969 544.348 322.998 544.446 323.132C544.447 323.133 544.449 323.135 544.449 323.136Z" fill="white"/>
<path d="M546.399 326.173L546.905 327.13C546.974 327.26 546.925 327.421 546.795 327.49C546.667 327.558 546.508 327.51 546.438 327.383L546.433 327.374L545.922 326.443L545.917 326.434C545.844 326.301 545.893 326.134 546.025 326.062C546.158 325.989 546.324 326.037 546.397 326.17C546.397 326.17 546.398 326.172 546.399 326.173Z" fill="white"/>
<path d="M547.942 329.433L548.321 330.447C548.367 330.571 548.304 330.709 548.181 330.755C548.058 330.801 547.922 330.74 547.874 330.619L547.871 330.61L547.484 329.62L547.48 329.611C547.43 329.484 547.493 329.34 547.62 329.29C547.747 329.24 547.89 329.303 547.94 329.431C547.94 329.431 547.941 329.433 547.942 329.433Z" fill="white"/>
<path d="M549.048 332.864L549.29 333.918C549.316 334.033 549.245 334.147 549.131 334.174C549.017 334.2 548.904 334.13 548.876 334.017L548.874 334.009L548.621 332.975L548.619 332.967C548.59 332.848 548.662 332.729 548.78 332.7C548.899 332.671 549.018 332.743 549.047 332.861C549.048 332.862 549.048 332.864 549.048 332.864Z" fill="white"/>
<path d="M549.687 336.41L549.783 337.487C549.792 337.59 549.717 337.68 549.614 337.689C549.513 337.698 549.424 337.624 549.413 337.523L549.412 337.515L549.302 336.456L549.301 336.447C549.29 336.34 549.367 336.245 549.474 336.234C549.58 336.223 549.676 336.3 549.687 336.407C549.687 336.407 549.687 336.409 549.687 336.41Z" fill="white"/>
<path d="M64.0771 441.544L215.931 441.545V412.233L64.0771 412.234C67.3272 412.233 67.3272 441.544 64.0771 441.544Z" fill="#91B3FA"/>
<path d="M215.931 434.21V420.795C215.931 416.067 212.93 412.233 209.228 412.233H64.7176C61.8066 412.233 59.4468 409.957 59.4468 407.15C59.4468 406.297 60.1637 405.605 61.0483 405.605H218.987C222.609 405.605 228.36 411.097 228.36 417.872V436.607C228.36 442.994 222.777 448.172 219.362 448.172H61.8791C60.5357 448.172 59.4468 447.122 59.4468 445.826C59.4468 443.461 61.4347 441.544 63.8868 441.544H210.189C213.36 441.544 215.931 438.261 215.931 434.21Z" fill="url(#paint39_linear_8007_33434)"/>
<path d="M211.72 418.605H69.3361C69.1388 418.605 68.979 418.445 68.979 418.247C68.979 418.05 69.1388 417.89 69.3361 417.89H211.72C211.917 417.89 212.077 418.05 212.077 418.247C212.077 418.445 211.917 418.605 211.72 418.605Z" fill="url(#paint40_linear_8007_33434)"/>
<path d="M211.72 422.956H69.3361C69.1388 422.956 68.979 422.796 68.979 422.598C68.979 422.401 69.1388 422.241 69.3361 422.241H211.72C211.917 422.241 212.077 422.401 212.077 422.598C212.077 422.795 211.917 422.956 211.72 422.956Z" fill="url(#paint41_linear_8007_33434)"/>
<path d="M211.72 427.306H69.3361C69.1388 427.306 68.979 427.146 68.979 426.949C68.979 426.751 69.1388 426.591 69.3361 426.591H211.72C211.917 426.591 212.077 426.751 212.077 426.949C212.077 427.146 211.917 427.306 211.72 427.306Z" fill="url(#paint42_linear_8007_33434)"/>
<path d="M211.72 431.657H69.3361C69.1388 431.657 68.979 431.497 68.979 431.3C68.979 431.102 69.1388 430.942 69.3361 430.942H211.72C211.917 430.942 212.077 431.102 212.077 431.3C212.077 431.497 211.917 431.657 211.72 431.657Z" fill="url(#paint43_linear_8007_33434)"/>
<path d="M211.72 436.008H69.3361C69.1388 436.008 68.979 435.848 68.979 435.651C68.979 435.453 69.1388 435.293 69.3361 435.293H211.72C211.917 435.293 212.077 435.453 212.077 435.651C212.077 435.848 211.917 436.008 211.72 436.008Z" fill="url(#paint44_linear_8007_33434)"/>
<path d="M213.84 496.836H25.013C21.1913 496.836 18.0933 493.735 18.0933 489.909V454.788C18.0933 450.962 21.1913 447.86 25.013 447.86H213.84C217.662 447.86 220.76 450.962 220.76 454.788V489.909C220.76 493.735 217.662 496.836 213.84 496.836Z" fill="url(#paint45_linear_8007_33434)"/>
<path d="M62.4639 491.207H43.3404C42.0465 491.207 40.9976 490.157 40.9976 488.862V455.834C40.9976 454.539 42.0465 453.488 43.3404 453.488H62.4639C63.7578 453.488 64.8067 454.539 64.8067 455.834V488.862C64.8067 490.157 63.7578 491.207 62.4639 491.207Z" fill="#7D97F4"/>
<path d="M75.3362 491.207H70.2138C69.1613 491.207 68.3086 490.353 68.3086 489.3V455.396C68.3086 454.342 69.1617 453.488 70.2138 453.488H75.3362C76.3886 453.488 77.2414 454.342 77.2414 455.396V489.3C77.2414 490.353 76.3883 491.207 75.3362 491.207Z" fill="#7D97F4"/>
<path d="M251.417 482.954C242.602 482.954 238.702 482.197 236.958 481.507C237.297 482.956 238.586 484.1 240.215 484.1H271.399C272.45 484.1 273.112 483.093 272.861 482.182C269.307 482.469 261.757 482.954 251.417 482.954Z" fill="url(#paint46_linear_8007_33434)"/>
<path d="M272.861 482.182C272.811 481.999 272.736 481.818 272.606 481.651C270.231 478.615 265.459 473.846 258.968 473.938C249.665 474.069 246.587 475.003 239.539 474.006C239.264 473.967 238.998 474.125 238.906 474.387L237.011 479.781C236.833 480.37 236.83 480.959 236.958 481.507C238.701 482.197 242.601 482.954 251.416 482.954C261.757 482.954 269.307 482.469 272.861 482.182Z" fill="url(#paint47_linear_8007_33434)"/>
<path d="M241.329 467.789L239.276 474.072C239.276 474.072 244.063 476.137 248.232 474.403L249.185 469.084L241.329 467.789Z" fill="url(#paint48_linear_8007_33434)"/>
<path d="M194.916 384.987C195.043 384.839 195.233 384.761 195.428 384.777C199.763 385.139 248.378 389.294 258.719 394.168C269.135 399.077 251.328 465.465 249.966 470.481C249.911 470.682 249.761 470.837 249.563 470.9C248.669 471.185 245.878 471.776 240.871 470.309C240.586 470.225 240.405 469.948 240.442 469.653C241.108 464.274 246.709 417.614 242.229 406.257C242.151 406.06 241.973 405.923 241.765 405.89L186.027 396.762C185.559 396.686 185.355 396.126 185.664 395.766L194.916 384.987Z" fill="url(#paint49_linear_8007_33434)"/>
<path d="M305.526 478.366C298.654 483.893 295.142 485.752 293.353 486.309C294.52 487.221 296.237 487.3 297.507 486.279L321.816 466.724C322.635 466.066 322.525 464.869 321.762 464.32C319.169 466.771 313.586 471.882 305.526 478.366Z" fill="url(#paint50_linear_8007_33434)"/>
<path d="M321.762 464.32C321.608 464.209 321.438 464.115 321.232 464.068C317.49 463.202 310.801 462.494 305.798 466.635C298.469 472.702 296.527 475.583 290.077 479.356L292.319 484.937C292.549 485.506 292.912 485.965 293.353 486.309C295.142 485.751 298.654 483.893 305.525 478.366C313.586 471.882 319.169 466.771 321.762 464.32Z" fill="url(#paint51_linear_8007_33434)"/>
<path d="M284.833 469.311C285.323 469.758 290.077 479.356 290.077 479.356C290.077 479.356 295.369 478.21 296.448 474.857L291.686 466.194L284.833 469.311Z" fill="url(#paint52_linear_8007_33434)"/>
<path d="M163.333 384.31C163.333 384.31 161.613 388.453 161.684 393.958C161.781 401.572 167.895 407.751 175.491 408.13L237.879 410.978C239.197 411.039 240.311 411.951 240.641 413.23C242.107 418.907 249.273 436.341 284.301 471.128C285.233 472.054 286.685 472.211 287.795 471.51L292.781 468.356C293.305 468.025 293.472 467.338 293.159 466.803L256.834 404.701C254.926 401.549 251.859 399.272 248.292 398.359L195.118 384.752L163.333 384.31Z" fill="url(#paint53_linear_8007_33434)"/>
<path d="M235.709 288.695C235.709 288.695 218.132 299.132 211.318 304.863L225.403 312.73C225.403 312.73 233.013 303.929 240.264 300.261L235.709 288.695Z" fill="url(#paint54_linear_8007_33434)"/>
<path d="M163.246 384.892C168.466 385.578 191.916 388.498 203.62 387.151C203.985 387.109 204.295 386.871 204.436 386.533C206.165 382.394 217.425 355.859 225.434 347.137C225.868 346.664 226.626 346.709 227.005 347.228C230.118 351.499 243.894 368.253 270.357 371.197C270.797 371.246 271.22 371.001 271.401 370.596L272.416 368.326C272.639 367.825 272.43 367.237 271.939 366.994C267.483 364.779 247.367 354.099 240.649 338.625C233.076 321.182 230.035 313.742 223.146 309.191C219.363 306.693 216.919 304.892 215.483 303.776C214.416 302.947 212.949 302.874 211.805 303.594C203.395 308.885 170.935 332.338 162.37 383.71C162.275 384.28 162.674 384.816 163.246 384.892Z" fill="url(#paint55_linear_8007_33434)"/>
<path d="M269.414 365.718L272.717 364.836L283.277 362.388C284.548 362.093 285.884 362.319 286.989 363.014L296.068 368.733L270.994 368.691C270.733 367.861 270.117 366.815 269.414 365.718Z" fill="url(#paint56_linear_8007_33434)"/>
<path d="M252.865 281.041C252.914 281.382 248.364 303.705 248.364 303.705L235.688 300.833L236.86 279.034C236.86 279.034 252.042 275.331 252.865 281.041Z" fill="url(#paint57_linear_8007_33434)"/>
<path d="M239.712 283.892L238.197 295.319C238.177 295.466 238.177 295.611 238.198 295.757C238.326 296.653 238.991 299.702 242.066 298.83C244.857 298.039 247.415 297.358 249.182 297.899C249.975 298.142 250.454 298.947 250.288 299.761C249.874 301.789 248.856 306.342 247.37 310.162C247.068 310.938 246.22 311.345 245.422 311.112C243.018 310.41 237.989 308.788 234.248 306.535C233.741 306.229 233.439 305.677 233.464 305.085C233.586 302.201 233.923 293.431 233.639 290.973C233.373 288.666 230.545 287.284 229.316 286.788C228.913 286.626 228.597 286.308 228.436 285.904C227.867 284.476 227.083 281.173 231.241 279.819C232.112 279.536 232.57 278.596 232.261 277.734C231.645 276.017 231.385 273.397 234.602 271.954C237.872 270.487 240.314 272.232 241.633 273.65C242.166 274.224 243.021 274.311 243.683 273.893C244.059 273.655 244.545 273.576 245.131 273.942C245.921 274.434 246.967 274.099 247.374 273.261C248.157 271.652 249.753 269.929 252.955 270.478C258.635 271.452 259.279 277.754 257.78 281.446C256.281 285.139 250.183 283.733 247.123 281.871C244.797 280.456 241.78 281.939 240.467 282.732C240.051 282.982 239.775 283.41 239.712 283.892Z" fill="white"/>
<path d="M233.747 294.888C233.747 294.888 235.464 288.592 233.064 286.989C230.665 285.386 227.112 286.218 227.894 290.961C228.867 296.86 233.747 294.888 233.747 294.888Z" fill="url(#paint58_linear_8007_33434)"/>
<path d="M259.552 373.301C259.593 373.303 259.634 373.304 259.675 373.303L313.241 373.25C314.565 373.249 315.637 372.175 315.636 370.852C315.634 369.528 314.556 368.435 313.235 368.458L259.67 368.512C258.345 368.513 257.273 369.586 257.275 370.91C257.276 372.192 258.285 373.238 259.552 373.301Z" fill="url(#paint59_linear_8007_33434)"/>
<path d="M333.985 320.783C333.966 320.819 333.948 320.856 333.931 320.893L311.393 369.542C310.835 370.745 311.356 372.171 312.555 372.728C313.754 373.284 315.2 372.766 315.735 371.558L338.273 322.909C338.831 321.706 338.311 320.28 337.111 319.723C335.949 319.184 334.576 319.659 333.985 320.783Z" fill="url(#paint60_linear_8007_33434)"/>
<path d="M283.403 375.992C283.169 376.962 260.818 460.884 255.152 482.16C254.498 484.612 256.323 487.019 258.829 487.019C260.577 487.019 262.1 485.814 262.524 484.095L287.334 383.386L283.403 375.992Z" fill="#7D97F4"/>
<path d="M295.642 375.992C295.876 376.962 318.227 460.884 323.894 482.16C324.547 484.612 322.723 487.019 320.216 487.019C318.468 487.019 316.945 485.814 316.522 484.095L291.711 383.386L295.642 375.992Z" fill="#7D97F4"/>
<path d="M296.573 373.248H282.653V384.439C282.653 386.048 283.94 387.352 285.528 387.352H287.437V412.49C287.437 413.708 288.411 414.695 289.613 414.695C290.815 414.695 291.789 413.708 291.789 412.49V387.352H292.758C294.865 387.352 296.573 385.622 296.573 383.487L296.573 373.248Z" fill="#7D97F4"/>
<path d="M248.427 370.56H326.153C327.239 370.56 328.188 371.304 328.459 372.37L329.544 376.63C329.935 378.163 328.787 379.656 327.224 379.647L247.469 379.182C245.923 379.173 244.795 377.698 245.173 376.179L246.117 372.383C246.383 371.311 247.335 370.56 248.427 370.56Z" fill="#91B3FA"/>
<defs>
<linearGradient id="paint0_linear_8007_33434" x1="676.482" y1="233.142" x2="-80.8886" y2="250.071" gradientUnits="userSpaceOnUse">
<stop stop-color="#DAE3FE"/>
<stop offset="1" stop-color="#E9EFFD"/>
</linearGradient>
<linearGradient id="paint1_linear_8007_33434" x1="602.016" y1="367.841" x2="755.591" y2="367.841" gradientUnits="userSpaceOnUse">
<stop stop-color="#DAE3FE"/>
<stop offset="1" stop-color="#E9EFFD"/>
</linearGradient>
<linearGradient id="paint2_linear_8007_33434" x1="95.6881" y1="227.802" x2="213.974" y2="227.802" gradientUnits="userSpaceOnUse">
<stop stop-color="#DAE3FE"/>
<stop offset="1" stop-color="#E9EFFD"/>
</linearGradient>
<linearGradient id="paint3_linear_8007_33434" x1="362.594" y1="492.598" x2="413.619" y2="21.1625" gradientUnits="userSpaceOnUse">
<stop stop-color="#09005D"/>
<stop offset="1" stop-color="#1A0F91"/>
</linearGradient>
<linearGradient id="paint4_linear_8007_33434" x1="603.184" y1="152.492" x2="167.338" y2="432.359" gradientUnits="userSpaceOnUse">
<stop stop-color="#FE7062"/>
<stop offset="1" stop-color="#FF928E"/>
</linearGradient>
<linearGradient id="paint5_linear_8007_33434" x1="188.464" y1="270.637" x2="554.653" y2="270.637" gradientUnits="userSpaceOnUse">
<stop stop-color="#E1473D"/>
<stop offset="1" stop-color="#E9605A"/>
</linearGradient>
<linearGradient id="paint6_linear_8007_33434" x1="371.672" y1="152.1" x2="388.68" y2="408.351" gradientUnits="userSpaceOnUse">
<stop stop-color="#09005D"/>
<stop offset="1" stop-color="#1A0F91"/>
</linearGradient>
<linearGradient id="paint7_linear_8007_33434" x1="612.935" y1="432.87" x2="648.196" y2="432.87" gradientUnits="userSpaceOnUse">
<stop stop-color="#FF928E"/>
<stop offset="1" stop-color="#FEB3B1"/>
</linearGradient>
<linearGradient id="paint8_linear_8007_33434" x1="634.51" y1="455.872" x2="629.311" y2="535.487" gradientUnits="userSpaceOnUse">
<stop stop-color="#4042E2"/>
<stop offset="1" stop-color="#4F52FF"/>
</linearGradient>
<linearGradient id="paint9_linear_8007_33434" x1="572.265" y1="435.05" x2="645.94" y2="435.05" gradientUnits="userSpaceOnUse">
<stop stop-color="#FF928E"/>
<stop offset="1" stop-color="#FEB3B1"/>
</linearGradient>
<linearGradient id="paint10_linear_8007_33434" x1="642.794" y1="452.702" x2="670.429" y2="318.401" gradientUnits="userSpaceOnUse">
<stop stop-color="#4042E2"/>
<stop offset="1" stop-color="#4F52FF"/>
</linearGradient>
<linearGradient id="paint11_linear_8007_33434" x1="584.461" y1="452.605" x2="579.263" y2="532.22" gradientUnits="userSpaceOnUse">
<stop stop-color="#4042E2"/>
<stop offset="1" stop-color="#4F52FF"/>
</linearGradient>
<linearGradient id="paint12_linear_8007_33434" x1="850.549" y1="146.524" x2="694.946" y2="318.027" gradientUnits="userSpaceOnUse">
<stop stop-color="#E1473D"/>
<stop offset="1" stop-color="#E9605A"/>
</linearGradient>
<linearGradient id="paint13_linear_8007_33434" x1="650.289" y1="304.697" x2="661.272" y2="356.013" gradientUnits="userSpaceOnUse">
<stop stop-color="#FF928E"/>
<stop offset="1" stop-color="#FEB3B1"/>
</linearGradient>
<linearGradient id="paint14_linear_8007_33434" x1="638.216" y1="294.015" x2="667.56" y2="292.955" gradientUnits="userSpaceOnUse">
<stop stop-color="#FF928E"/>
<stop offset="1" stop-color="#FEB3B1"/>
</linearGradient>
<linearGradient id="paint15_linear_8007_33434" x1="642.224" y1="413.739" x2="664.885" y2="381.555" gradientUnits="userSpaceOnUse">
<stop stop-color="#FF928E"/>
<stop offset="1" stop-color="#FEB3B1"/>
</linearGradient>
<linearGradient id="paint16_linear_8007_33434" x1="479.137" y1="278.32" x2="610.843" y2="360.231" gradientUnits="userSpaceOnUse">
<stop stop-color="#09005D"/>
<stop offset="1" stop-color="#1A0F91"/>
</linearGradient>
<linearGradient id="paint17_linear_8007_33434" x1="550.836" y1="324.951" x2="678.341" y2="413.269" gradientUnits="userSpaceOnUse">
<stop stop-color="#09005D"/>
<stop offset="1" stop-color="#1A0F91"/>
</linearGradient>
<linearGradient id="paint18_linear_8007_33434" x1="600.782" y1="342.835" x2="561.777" y2="412.178" gradientUnits="userSpaceOnUse">
<stop stop-color="#4042E2"/>
<stop offset="1" stop-color="#4F52FF"/>
</linearGradient>
<linearGradient id="paint19_linear_8007_33434" x1="638.363" y1="298.065" x2="667.706" y2="297.005" gradientUnits="userSpaceOnUse">
<stop stop-color="#FF928E"/>
<stop offset="1" stop-color="#FEB3B1"/>
</linearGradient>
<linearGradient id="paint20_linear_8007_33434" x1="180.454" y1="169.18" x2="223.671" y2="280.284" gradientUnits="userSpaceOnUse">
<stop stop-color="#4042E2"/>
<stop offset="1" stop-color="#4F52FF"/>
</linearGradient>
<linearGradient id="paint21_linear_8007_33434" x1="141.948" y1="93.7122" x2="181.608" y2="155.256" gradientUnits="userSpaceOnUse">
<stop stop-color="#4042E2"/>
<stop offset="1" stop-color="#4F52FF"/>
</linearGradient>
<linearGradient id="paint22_linear_8007_33434" x1="154.185" y1="100.499" x2="130.091" y2="232.155" gradientUnits="userSpaceOnUse">
<stop stop-color="#09005D"/>
<stop offset="1" stop-color="#1A0F91"/>
</linearGradient>
<linearGradient id="paint23_linear_8007_33434" x1="776.058" y1="90.4792" x2="464.076" y2="246.828" gradientUnits="userSpaceOnUse">
<stop stop-color="#4042E2"/>
<stop offset="1" stop-color="#4F52FF"/>
</linearGradient>
<linearGradient id="paint24_linear_8007_33434" x1="767.56" y1="73.5192" x2="455.577" y2="229.868" gradientUnits="userSpaceOnUse">
<stop stop-color="#4042E2"/>
<stop offset="1" stop-color="#4F52FF"/>
</linearGradient>
<linearGradient id="paint25_linear_8007_33434" x1="758.969" y1="56.3768" x2="446.984" y2="212.727" gradientUnits="userSpaceOnUse">
<stop stop-color="#4042E2"/>
<stop offset="1" stop-color="#4F52FF"/>
</linearGradient>
<linearGradient id="paint26_linear_8007_33434" x1="658.813" y1="-3.25077" x2="620.023" y2="115.11" gradientUnits="userSpaceOnUse">
<stop stop-color="#4042E2"/>
<stop offset="1" stop-color="#4F52FF"/>
</linearGradient>
<linearGradient id="paint27_linear_8007_33434" x1="550.705" y1="27.4214" x2="714.953" y2="27.4214" gradientUnits="userSpaceOnUse">
<stop stop-color="#4042E2"/>
<stop offset="1" stop-color="#4F52FF"/>
</linearGradient>
<linearGradient id="paint28_linear_8007_33434" x1="271.917" y1="426.394" x2="271.276" y2="427.195" gradientUnits="userSpaceOnUse">
<stop stop-color="#CB236D"/>
<stop offset="1" stop-color="#4C246D"/>
</linearGradient>
<linearGradient id="paint29_linear_8007_33434" x1="459.68" y1="125.327" x2="124.755" y2="543.972" gradientUnits="userSpaceOnUse">
<stop stop-color="#4042E2"/>
<stop offset="1" stop-color="#4F52FF"/>
</linearGradient>
<linearGradient id="paint30_linear_8007_33434" x1="599.976" y1="67.5779" x2="333.889" y2="628.331" gradientUnits="userSpaceOnUse">
<stop stop-color="#09005D"/>
<stop offset="1" stop-color="#1A0F91"/>
</linearGradient>
<linearGradient id="paint31_linear_8007_33434" x1="225.231" y1="339.931" x2="17.0629" y2="600.199" gradientUnits="userSpaceOnUse">
<stop stop-color="#4042E2"/>
<stop offset="1" stop-color="#4F52FF"/>
</linearGradient>
<linearGradient id="paint32_linear_8007_33434" x1="505.43" y1="156.548" x2="162.717" y2="584.928" gradientUnits="userSpaceOnUse">
<stop stop-color="#4042E2"/>
<stop offset="1" stop-color="#4F52FF"/>
</linearGradient>
<linearGradient id="paint33_linear_8007_33434" x1="441.029" y1="316.591" x2="517.514" y2="200.58" gradientUnits="userSpaceOnUse">
<stop stop-color="#FF928E"/>
<stop offset="1" stop-color="#FEB3B1"/>
</linearGradient>
<linearGradient id="paint34_linear_8007_33434" x1="433.211" y1="311.437" x2="509.696" y2="195.425" gradientUnits="userSpaceOnUse">
<stop stop-color="#FF928E"/>
<stop offset="1" stop-color="#FEB3B1"/>
</linearGradient>
<linearGradient id="paint35_linear_8007_33434" x1="327.989" y1="190.871" x2="295.868" y2="329.517" gradientUnits="userSpaceOnUse">
<stop stop-color="#FF928E"/>
<stop offset="1" stop-color="#FEB3B1"/>
</linearGradient>
<linearGradient id="paint36_linear_8007_33434" x1="298.148" y1="126.804" x2="330.739" y2="218.097" gradientUnits="userSpaceOnUse">
<stop stop-color="#FF928E"/>
<stop offset="1" stop-color="#FEB3B1"/>
</linearGradient>
<linearGradient id="paint37_linear_8007_33434" x1="306.708" y1="161.369" x2="365.072" y2="236.427" gradientUnits="userSpaceOnUse">
<stop stop-color="#09005D"/>
<stop offset="1" stop-color="#1A0F91"/>
</linearGradient>
<linearGradient id="paint38_linear_8007_33434" x1="277.983" y1="134.003" x2="310.575" y2="225.296" gradientUnits="userSpaceOnUse">
<stop stop-color="#FF928E"/>
<stop offset="1" stop-color="#FEB3B1"/>
</linearGradient>
<linearGradient id="paint39_linear_8007_33434" x1="148.278" y1="485.376" x2="164.224" y2="680.767" gradientUnits="userSpaceOnUse">
<stop stop-color="#4042E2"/>
<stop offset="1" stop-color="#4F52FF"/>
</linearGradient>
<linearGradient id="paint40_linear_8007_33434" x1="68.979" y1="418.247" x2="212.077" y2="418.247" gradientUnits="userSpaceOnUse">
<stop stop-color="#DAE3FE"/>
<stop offset="1" stop-color="#E9EFFD"/>
</linearGradient>
<linearGradient id="paint41_linear_8007_33434" x1="68.979" y1="422.598" x2="212.077" y2="422.598" gradientUnits="userSpaceOnUse">
<stop stop-color="#DAE3FE"/>
<stop offset="1" stop-color="#E9EFFD"/>
</linearGradient>
<linearGradient id="paint42_linear_8007_33434" x1="68.979" y1="426.949" x2="212.077" y2="426.949" gradientUnits="userSpaceOnUse">
<stop stop-color="#DAE3FE"/>
<stop offset="1" stop-color="#E9EFFD"/>
</linearGradient>
<linearGradient id="paint43_linear_8007_33434" x1="68.979" y1="431.3" x2="212.077" y2="431.3" gradientUnits="userSpaceOnUse">
<stop stop-color="#DAE3FE"/>
<stop offset="1" stop-color="#E9EFFD"/>
</linearGradient>
<linearGradient id="paint44_linear_8007_33434" x1="68.979" y1="435.65" x2="212.077" y2="435.65" gradientUnits="userSpaceOnUse">
<stop stop-color="#DAE3FE"/>
<stop offset="1" stop-color="#E9EFFD"/>
</linearGradient>
<linearGradient id="paint45_linear_8007_33434" x1="257.508" y1="303.948" x2="179.624" y2="398.717" gradientUnits="userSpaceOnUse">
<stop stop-color="#4042E2"/>
<stop offset="1" stop-color="#4F52FF"/>
</linearGradient>
<linearGradient id="paint46_linear_8007_33434" x1="252.599" y1="427.883" x2="254.253" y2="466.108" gradientUnits="userSpaceOnUse">
<stop stop-color="#09005D"/>
<stop offset="1" stop-color="#1A0F91"/>
</linearGradient>
<linearGradient id="paint47_linear_8007_33434" x1="264.661" y1="413.584" x2="254.815" y2="481.536" gradientUnits="userSpaceOnUse">
<stop stop-color="#4042E2"/>
<stop offset="1" stop-color="#4F52FF"/>
</linearGradient>
<linearGradient id="paint48_linear_8007_33434" x1="239.276" y1="471.443" x2="249.186" y2="471.443" gradientUnits="userSpaceOnUse">
<stop stop-color="#FF928E"/>
<stop offset="1" stop-color="#FEB3B1"/>
</linearGradient>
<linearGradient id="paint49_linear_8007_33434" x1="256.482" y1="370.2" x2="182.651" y2="490.104" gradientUnits="userSpaceOnUse">
<stop stop-color="#09005D"/>
<stop offset="1" stop-color="#1A0F91"/>
</linearGradient>
<linearGradient id="paint50_linear_8007_33434" x1="305.696" y1="425.586" x2="307.35" y2="463.811" gradientUnits="userSpaceOnUse">
<stop stop-color="#09005D"/>
<stop offset="1" stop-color="#1A0F91"/>
</linearGradient>
<linearGradient id="paint51_linear_8007_33434" x1="313.322" y1="420.635" x2="303.476" y2="488.587" gradientUnits="userSpaceOnUse">
<stop stop-color="#4042E2"/>
<stop offset="1" stop-color="#4F52FF"/>
</linearGradient>
<linearGradient id="paint52_linear_8007_33434" x1="284.834" y1="472.775" x2="296.448" y2="472.775" gradientUnits="userSpaceOnUse">
<stop stop-color="#FF928E"/>
<stop offset="1" stop-color="#FEB3B1"/>
</linearGradient>
<linearGradient id="paint53_linear_8007_33434" x1="165.97" y1="373.785" x2="265.028" y2="438.806" gradientUnits="userSpaceOnUse">
<stop stop-color="#09005D"/>
<stop offset="1" stop-color="#1A0F91"/>
</linearGradient>
<linearGradient id="paint54_linear_8007_33434" x1="242.253" y1="303.601" x2="215.22" y2="296.94" gradientUnits="userSpaceOnUse">
<stop stop-color="#FF928E"/>
<stop offset="1" stop-color="#FEB3B1"/>
</linearGradient>
<linearGradient id="paint55_linear_8007_33434" x1="363.873" y1="13.4622" x2="302.946" y2="162.068" gradientUnits="userSpaceOnUse">
<stop stop-color="#09005D"/>
<stop offset="1" stop-color="#1A0F91"/>
</linearGradient>
<linearGradient id="paint56_linear_8007_33434" x1="269.414" y1="365.498" x2="296.068" y2="365.498" gradientUnits="userSpaceOnUse">
<stop stop-color="#FF928E"/>
<stop offset="1" stop-color="#FEB3B1"/>
</linearGradient>
<linearGradient id="paint57_linear_8007_33434" x1="250.976" y1="287.91" x2="222.151" y2="299.807" gradientUnits="userSpaceOnUse">
<stop stop-color="#FF928E"/>
<stop offset="1" stop-color="#FEB3B1"/>
</linearGradient>
<linearGradient id="paint58_linear_8007_33434" x1="241.597" y1="282.141" x2="228.188" y2="293.51" gradientUnits="userSpaceOnUse">
<stop stop-color="#FF928E"/>
<stop offset="1" stop-color="#FEB3B1"/>
</linearGradient>
<linearGradient id="paint59_linear_8007_33434" x1="-5480.04" y1="-5779.27" x2="-5385.26" y2="-5678.06" gradientUnits="userSpaceOnUse">
<stop stop-color="#09005D"/>
<stop offset="1" stop-color="#1A0F91"/>
</linearGradient>
<linearGradient id="paint60_linear_8007_33434" x1="8324.5" y1="-2294.85" x2="8192.79" y2="-2251.74" gradientUnits="userSpaceOnUse">
<stop stop-color="#09005D"/>
<stop offset="1" stop-color="#1A0F91"/>
</linearGradient>
</defs>
</svg>
