<svg width="26" height="26" viewBox="0 0 26 26" fill="none" xmlns="http://www.w3.org/2000/svg">
<path d="M10.5864 14.208C11.1046 14.9016 11.7659 15.4755 12.5252 15.8907C13.2845 16.306 14.1242 16.5529 14.9872 16.6148C15.8502 16.6767 16.7165 16.552 17.5272 16.2493C18.3379 15.9466 19.074 15.4729 19.6857 14.8604L23.3062 11.2363C24.4053 10.0971 25.0135 8.57135 24.9998 6.98765C24.986 5.40394 24.3514 3.889 23.2327 2.76911C22.1139 1.64922 20.6005 1.01399 19.0184 1.00023C17.4363 0.986466 15.912 1.59528 14.774 2.69554L12.6983 4.76126M15.4136 11.792C14.8954 11.0984 14.2341 10.5245 13.4748 10.1093C12.7155 9.694 11.8758 9.44705 11.0128 9.38518C10.1498 9.32331 9.28352 9.44796 8.47283 9.75067C7.66215 10.0534 6.92598 10.5271 6.31427 11.1396L2.69383 14.7637C1.59468 15.9029 0.98648 17.4287 1.00023 19.0124C1.01398 20.5961 1.64857 22.111 2.76733 23.2309C3.8861 24.3508 5.39951 24.986 6.98162 24.9998C8.56373 25.0135 10.0879 24.4047 11.226 23.3045L13.2896 21.2387" stroke="#3A3A3A" stroke-linecap="round" stroke-linejoin="round"/>
</svg>
