<svg width="21" height="24" viewBox="0 0 21 24" fill="none" xmlns="http://www.w3.org/2000/svg">
<path d="M14.25 8.5L9.25 13.5L6.75 11M20.5 9.95631C20.5 18.1666 14.2899 21.8476 11.6572 23.0392L11.6539 23.0407C11.377 23.166 11.2382 23.2288 10.9236 23.2829C10.7243 23.3171 10.2769 23.3171 10.0777 23.2829C9.76178 23.2286 9.62154 23.1656 9.34244 23.0392C6.70975 21.8476 0.5 18.1666 0.5 9.9563V5.00024C0.5 3.60011 0.5 2.89953 0.772484 2.36475C1.01217 1.89434 1.39434 1.51217 1.86475 1.27248C2.39953 1 3.10011 1 4.50024 1H16.5002C17.9004 1 18.5995 1 19.1342 1.27248C19.6046 1.51217 19.9881 1.89434 20.2278 2.36475C20.5 2.899 20.5 3.59874 20.5 4.99614V9.95631Z" stroke="#3A3A3A" stroke-linecap="round" stroke-linejoin="round"/>
</svg>
