<svg width="22" height="18" viewBox="0 0 22 18" fill="none" xmlns="http://www.w3.org/2000/svg">
<path d="M20.5 16.9999C20.5 15.1422 18.7376 13.5618 16.2778 12.976M14.1667 17C14.1667 14.6436 11.3311 12.7333 7.83333 12.7333C4.33553 12.7333 1.5 14.6436 1.5 17M14.1667 9.53333C16.4985 9.53333 18.3889 7.62308 18.3889 5.26667C18.3889 2.91025 16.4985 1 14.1667 1M7.83333 9.53333C5.50146 9.53333 3.61111 7.62308 3.61111 5.26667C3.61111 2.91025 5.50146 1 7.83333 1C10.1652 1 12.0556 2.91025 12.0556 5.26667C12.0556 7.62308 10.1652 9.53333 7.83333 9.53333Z" stroke="#3A3A3A" stroke-width="1.5" stroke-linecap="round" stroke-linejoin="round"/>
</svg>
