<svg width="18" height="18" viewBox="0 0 18 18" fill="none" xmlns="http://www.w3.org/2000/svg">
<path d="M12 4.24859V4.2002C12 3.08009 12 2.51962 11.782 2.0918C11.5903 1.71547 11.2845 1.40973 10.9082 1.21799C10.4804 1 9.91992 1 8.79981 1H4.19981C3.07971 1 2.52044 1 2.09262 1.21799C1.71629 1.40973 1.40953 1.71547 1.21778 2.0918C1.00001 2.5192 1.00001 3.07899 1.00001 4.19691V13.8036C1.00001 14.9215 1.00001 15.4805 1.21778 15.9079C1.40953 16.2842 1.71629 16.5905 2.09262 16.7822C2.52002 17 3.07901 17 4.19692 17H8.8031C9.92102 17 10.4808 17 10.9082 16.7822C11.2845 16.5905 11.5903 16.2839 11.782 15.9076C12 15.4798 12 14.9201 12 13.8V13.75M14 12L17 9M17 9H11.5H5.99997M17 9L15.5 7.5L14 6" stroke="#3A3A3A" stroke-width="1.5" stroke-linecap="round" stroke-linejoin="round"/>
</svg>
