<svg width="25" height="25" viewBox="0 0 25 25" fill="none" xmlns="http://www.w3.org/2000/svg">
<path d="M11.8947 19.5281L8.26316 17.6114M8.26316 17.6114L1 21.4448V4.8334L8.26316 1M8.26316 17.6114V1M8.26316 1L15.5263 4.8334M15.5263 4.8334L22.7895 1V10.5835M15.5263 4.8334V11.8613M20.3684 18.8892V18.902M22.9359 21.599C23.4439 21.0629 23.7899 20.3799 23.9301 19.6363C24.0704 18.8926 23.9985 18.1218 23.7237 17.4213C23.4488 16.7207 22.9834 16.122 22.3861 15.7007C21.7889 15.2794 21.0867 15.0546 20.3684 15.0546C19.6501 15.0546 18.9479 15.2794 18.3507 15.7007C17.7535 16.122 17.288 16.7207 17.0132 17.4213C16.7383 18.1218 16.6665 18.8926 16.8067 19.6363C16.9469 20.3799 17.2929 21.0629 17.8009 21.599C18.3069 22.1344 19.1627 22.9343 20.3684 24C21.6407 22.8628 22.4977 22.0629 22.9359 21.599Z" stroke="#375FFF" stroke-linecap="round" stroke-linejoin="round"/>
</svg>
