<svg width="22" height="24" viewBox="0 0 22 24" fill="none" xmlns="http://www.w3.org/2000/svg">
<path d="M14.75 8.5L9.75 13.5L7.25 11M21 9.95631C21 18.1666 14.7899 21.8476 12.1572 23.0392L12.1539 23.0407C11.877 23.166 11.7382 23.2288 11.4236 23.2829C11.2243 23.3171 10.7769 23.3171 10.5777 23.2829C10.2618 23.2286 10.1215 23.1656 9.84244 23.0392C7.20975 21.8476 1 18.1666 1 9.9563V5.00024C1 3.60011 1 2.89953 1.27248 2.36475C1.51217 1.89434 1.89434 1.51217 2.36475 1.27248C2.89953 1 3.60011 1 5.00024 1H17.0002C18.4004 1 19.0995 1 19.6342 1.27248C20.1046 1.51217 20.4881 1.89434 20.7278 2.36475C21 2.899 21 3.59874 21 4.99614V9.95631Z" stroke="#375FFF" stroke-linecap="round" stroke-linejoin="round"/>
</svg>
